<svg xmlns="http://www.w3.org/2000/svg" width="1200" height="760" viewBox="0 0 1200 760">
<rect width="100%" height="100%" fill="white" />
<rect x="90" y="40" width="1070" height="650" fill="#f8fafc" stroke="#cbd5e1" />
<text x="600" y="24" text-anchor="middle" font-family="sans-serif" font-size="16">Global DP monotonic word alignment: clip time x source time</text>
<text x="600" y="738" text-anchor="middle" font-family="sans-serif" font-size="13">clip time</text>
<text x="22" y="380" text-anchor="middle" font-family="sans-serif" font-size="13" transform="rotate(-90 22 380)">source time</text>
<text x="90" y="718" font-family="monospace" font-size="12">0:01.754</text>
<text x="1160" y="718" text-anchor="end" font-family="monospace" font-size="12">17:05.566</text>
<text x="82" y="690" text-anchor="end" font-family="monospace" font-size="12">2:26.400</text>
<text x="82" y="44" text-anchor="end" font-family="monospace" font-size="12">196:07.880</text>
<circle cx="90.04" cy="690" r="1.6" fill="#2563eb" opacity="0.38" />
<circle cx="90.61" cy="689.92" r="1.6" fill="#2563eb" opacity="0.38" />
<circle cx="91.28" cy="689.74" r="1.6" fill="#2563eb" opacity="0.38" />
<circle cx="92.15" cy="689.57" r="1.6" fill="#2563eb" opacity="0.38" />
<circle cx="92.28" cy="689.54" r="1.6" fill="#2563eb" opacity="0.38" />
<circle cx="92.34" cy="689.52" r="1.6" fill="#2563eb" opacity="0.38" />
<circle cx="92.38" cy="688.68" r="1.6" fill="#2563eb" opacity="0.38" />
<circle cx="92.4" cy="686.36" r="1.6" fill="#2563eb" opacity="0.38" />
<circle cx="92.49" cy="682.38" r="1.6" fill="#2563eb" opacity="0.38" />
<circle cx="92.63" cy="682.35" r="1.6" fill="#2563eb" opacity="0.38" />
<circle cx="92.78" cy="682.33" r="1.6" fill="#2563eb" opacity="0.38" />
<circle cx="92.91" cy="682.33" r="1.6" fill="#2563eb" opacity="0.38" />
<circle cx="93.14" cy="682.31" r="1.6" fill="#2563eb" opacity="0.38" />
<circle cx="95.25" cy="682.21" r="1.6" fill="#2563eb" opacity="0.38" />
<circle cx="95.27" cy="682.2" r="1.6" fill="#2563eb" opacity="0.38" />
<circle cx="96.04" cy="682.16" r="1.6" fill="#2563eb" opacity="0.38" />
<circle cx="96.31" cy="682.15" r="1.6" fill="#2563eb" opacity="0.38" />
<circle cx="98.03" cy="682.06" r="1.6" fill="#2563eb" opacity="0.38" />
<circle cx="98.7" cy="682.05" r="1.6" fill="#2563eb" opacity="0.38" />
<circle cx="99.81" cy="681.61" r="1.6" fill="#2563eb" opacity="0.38" />
<circle cx="100.29" cy="681.45" r="1.6" fill="#2563eb" opacity="0.38" />
<circle cx="100.75" cy="681.37" r="1.6" fill="#2563eb" opacity="0.38" />
<circle cx="101.08" cy="681.34" r="1.6" fill="#2563eb" opacity="0.38" />
<circle cx="101.16" cy="681.08" r="1.6" fill="#2563eb" opacity="0.38" />
<circle cx="103.25" cy="680.61" r="1.6" fill="#2563eb" opacity="0.38" />
<circle cx="103.67" cy="680.36" r="1.6" fill="#2563eb" opacity="0.38" />
<circle cx="106.6" cy="679.12" r="1.6" fill="#2563eb" opacity="0.38" />
<circle cx="107.21" cy="679.08" r="1.6" fill="#2563eb" opacity="0.38" />
<circle cx="108.65" cy="678.79" r="1.6" fill="#2563eb" opacity="0.38" />
<circle cx="108.75" cy="676" r="1.6" fill="#2563eb" opacity="0.38" />
<circle cx="109.15" cy="675.74" r="1.6" fill="#2563eb" opacity="0.38" />
<circle cx="109.44" cy="675.37" r="1.6" fill="#2563eb" opacity="0.38" />
<circle cx="117.51" cy="675.33" r="1.6" fill="#2563eb" opacity="0.38" />
<circle cx="119.1" cy="674.16" r="1.6" fill="#2563eb" opacity="0.38" />
<circle cx="119.21" cy="673.65" r="1.6" fill="#2563eb" opacity="0.38" />
<circle cx="119.41" cy="673.4" r="1.6" fill="#2563eb" opacity="0.38" />
<circle cx="121.18" cy="673.31" r="1.6" fill="#2563eb" opacity="0.38" />
<circle cx="121.91" cy="673.27" r="1.6" fill="#2563eb" opacity="0.38" />
<circle cx="121.99" cy="673.27" r="1.6" fill="#2563eb" opacity="0.38" />
<circle cx="122.1" cy="673.26" r="1.6" fill="#2563eb" opacity="0.38" />
<circle cx="123.73" cy="673.18" r="1.6" fill="#2563eb" opacity="0.38" />
<circle cx="124.23" cy="673.01" r="1.6" fill="#2563eb" opacity="0.38" />
<circle cx="124.46" cy="672.99" r="1.6" fill="#2563eb" opacity="0.38" />
<circle cx="124.57" cy="670.63" r="1.6" fill="#2563eb" opacity="0.38" />
<circle cx="127.7" cy="670.52" r="1.6" fill="#2563eb" opacity="0.38" />
<circle cx="134.92" cy="670.07" r="1.6" fill="#2563eb" opacity="0.38" />
<circle cx="135.27" cy="670.05" r="1.6" fill="#2563eb" opacity="0.38" />
<circle cx="135.38" cy="670.04" r="1.6" fill="#2563eb" opacity="0.38" />
<circle cx="135.48" cy="670.04" r="1.6" fill="#2563eb" opacity="0.38" />
<circle cx="135.77" cy="670.02" r="1.6" fill="#2563eb" opacity="0.38" />
<circle cx="135.88" cy="670.01" r="1.6" fill="#2563eb" opacity="0.38" />
<circle cx="136.28" cy="669.64" r="1.6" fill="#2563eb" opacity="0.38" />
<circle cx="136.67" cy="666.53" r="1.6" fill="#2563eb" opacity="0.38" />
<circle cx="138.64" cy="665.78" r="1.6" fill="#2563eb" opacity="0.38" />
<circle cx="138.91" cy="665.48" r="1.6" fill="#2563eb" opacity="0.38" />
<circle cx="147.19" cy="665.32" r="1.6" fill="#2563eb" opacity="0.38" />
<circle cx="147.3" cy="665.31" r="1.6" fill="#2563eb" opacity="0.38" />
<circle cx="147.38" cy="665.31" r="1.6" fill="#2563eb" opacity="0.38" />
<circle cx="147.48" cy="665.31" r="1.6" fill="#2563eb" opacity="0.38" />
<circle cx="147.59" cy="663.67" r="1.6" fill="#2563eb" opacity="0.38" />
<circle cx="147.74" cy="662.21" r="1.6" fill="#2563eb" opacity="0.38" />
<circle cx="148.38" cy="661.24" r="1.6" fill="#2563eb" opacity="0.38" />
<circle cx="148.49" cy="661.14" r="1.6" fill="#2563eb" opacity="0.38" />
<circle cx="148.68" cy="659.33" r="1.6" fill="#2563eb" opacity="0.38" />
<circle cx="148.82" cy="659.26" r="1.6" fill="#2563eb" opacity="0.38" />
<circle cx="148.93" cy="657.09" r="1.6" fill="#2563eb" opacity="0.38" />
<circle cx="149.93" cy="657.08" r="1.6" fill="#2563eb" opacity="0.38" />
<circle cx="150.08" cy="657.07" r="1.6" fill="#2563eb" opacity="0.38" />
<circle cx="167.49" cy="656.28" r="1.6" fill="#2563eb" opacity="0.38" />
<circle cx="167.6" cy="654.56" r="1.6" fill="#2563eb" opacity="0.38" />
<circle cx="167.74" cy="654.47" r="1.6" fill="#2563eb" opacity="0.38" />
<circle cx="167.85" cy="654.44" r="1.6" fill="#2563eb" opacity="0.38" />
<circle cx="167.93" cy="654.26" r="1.6" fill="#2563eb" opacity="0.38" />
<circle cx="168.04" cy="651.94" r="1.6" fill="#2563eb" opacity="0.38" />
<circle cx="168.33" cy="650.68" r="1.6" fill="#2563eb" opacity="0.38" />
<circle cx="168.46" cy="647.59" r="1.6" fill="#2563eb" opacity="0.38" />
<circle cx="169.59" cy="647.42" r="1.6" fill="#2563eb" opacity="0.38" />
<circle cx="169.73" cy="646.23" r="1.6" fill="#2563eb" opacity="0.38" />
<circle cx="170.95" cy="646.04" r="1.6" fill="#2563eb" opacity="0.38" />
<circle cx="171.1" cy="642.96" r="1.6" fill="#2563eb" opacity="0.38" />
<circle cx="171.22" cy="638.83" r="1.6" fill="#2563eb" opacity="0.38" />
<circle cx="171.56" cy="638.46" r="1.6" fill="#2563eb" opacity="0.38" />
<circle cx="171.64" cy="637.08" r="1.6" fill="#2563eb" opacity="0.38" />
<circle cx="176.33" cy="636.86" r="1.6" fill="#2563eb" opacity="0.38" />
<circle cx="176.39" cy="636.86" r="1.6" fill="#2563eb" opacity="0.38" />
<circle cx="176.77" cy="636.53" r="1.6" fill="#2563eb" opacity="0.38" />
<circle cx="176.94" cy="635.94" r="1.6" fill="#2563eb" opacity="0.38" />
<circle cx="177" cy="632.2" r="1.6" fill="#2563eb" opacity="0.38" />
<circle cx="177.02" cy="631.22" r="1.6" fill="#2563eb" opacity="0.38" />
<circle cx="177.09" cy="630.72" r="1.6" fill="#2563eb" opacity="0.38" />
<circle cx="178.41" cy="629.46" r="1.6" fill="#2563eb" opacity="0.38" />
<circle cx="178.66" cy="629.33" r="1.6" fill="#2563eb" opacity="0.38" />
<circle cx="178.78" cy="629.2" r="1.6" fill="#2563eb" opacity="0.38" />
<circle cx="178.91" cy="628.66" r="1.6" fill="#2563eb" opacity="0.38" />
<circle cx="178.97" cy="628.1" r="1.6" fill="#2563eb" opacity="0.38" />
<circle cx="179.22" cy="628.08" r="1.6" fill="#2563eb" opacity="0.38" />
<circle cx="188.88" cy="626.87" r="1.6" fill="#2563eb" opacity="0.38" />
<circle cx="189.34" cy="626.85" r="1.6" fill="#2563eb" opacity="0.38" />
<circle cx="189.47" cy="626.84" r="1.6" fill="#2563eb" opacity="0.38" />
<circle cx="191.45" cy="626.73" r="1.6" fill="#2563eb" opacity="0.38" />
<circle cx="191.52" cy="624.11" r="1.6" fill="#2563eb" opacity="0.38" />
<circle cx="191.89" cy="623.86" r="1.6" fill="#2563eb" opacity="0.38" />
<circle cx="192.94" cy="621.24" r="1.6" fill="#2563eb" opacity="0.38" />
<circle cx="193.75" cy="619.65" r="1.6" fill="#2563eb" opacity="0.38" />
<circle cx="193.94" cy="619.48" r="1.6" fill="#2563eb" opacity="0.38" />
<circle cx="194.76" cy="619.41" r="1.6" fill="#2563eb" opacity="0.38" />
<circle cx="196.28" cy="618.55" r="1.6" fill="#2563eb" opacity="0.38" />
<circle cx="196.51" cy="615.72" r="1.6" fill="#2563eb" opacity="0.38" />
<circle cx="196.91" cy="615.63" r="1.6" fill="#2563eb" opacity="0.38" />
<circle cx="197.29" cy="615.63" r="1.6" fill="#2563eb" opacity="0.38" />
<circle cx="197.37" cy="614.9" r="1.6" fill="#2563eb" opacity="0.38" />
<circle cx="198.02" cy="614.79" r="1.6" fill="#2563eb" opacity="0.38" />
<circle cx="198.21" cy="613.75" r="1.6" fill="#2563eb" opacity="0.38" />
<circle cx="198.9" cy="613.22" r="1.6" fill="#2563eb" opacity="0.38" />
<circle cx="198.94" cy="612.22" r="1.6" fill="#2563eb" opacity="0.38" />
<circle cx="200.3" cy="610.43" r="1.6" fill="#2563eb" opacity="0.38" />
<circle cx="200.36" cy="609.95" r="1.6" fill="#2563eb" opacity="0.38" />
<circle cx="200.51" cy="609.37" r="1.6" fill="#2563eb" opacity="0.38" />
<circle cx="200.61" cy="609.07" r="1.6" fill="#2563eb" opacity="0.38" />
<circle cx="202.04" cy="607.72" r="1.6" fill="#2563eb" opacity="0.38" />
<circle cx="202.06" cy="607.67" r="1.6" fill="#2563eb" opacity="0.38" />
<circle cx="202.48" cy="606.31" r="1.6" fill="#2563eb" opacity="0.38" />
<circle cx="202.54" cy="605.81" r="1.6" fill="#2563eb" opacity="0.38" />
<circle cx="204.34" cy="605.29" r="1.6" fill="#2563eb" opacity="0.38" />
<circle cx="204.57" cy="604.95" r="1.6" fill="#2563eb" opacity="0.38" />
<circle cx="204.96" cy="602.5" r="1.6" fill="#2563eb" opacity="0.38" />
<circle cx="206.05" cy="600.95" r="1.6" fill="#2563eb" opacity="0.38" />
<circle cx="206.37" cy="600.87" r="1.6" fill="#2563eb" opacity="0.38" />
<circle cx="208.46" cy="599.41" r="1.6" fill="#2563eb" opacity="0.38" />
<circle cx="208.6" cy="599.37" r="1.6" fill="#2563eb" opacity="0.38" />
<circle cx="208.69" cy="597.62" r="1.6" fill="#2563eb" opacity="0.38" />
<circle cx="208.77" cy="594.7" r="1.6" fill="#2563eb" opacity="0.38" />
<circle cx="208.9" cy="593.14" r="1.6" fill="#2563eb" opacity="0.38" />
<circle cx="209" cy="593.02" r="1.6" fill="#2563eb" opacity="0.38" />
<circle cx="209.11" cy="592.52" r="1.6" fill="#2563eb" opacity="0.38" />
<circle cx="209.27" cy="592.51" r="1.6" fill="#2563eb" opacity="0.38" />
<circle cx="210.07" cy="592.45" r="1.6" fill="#2563eb" opacity="0.38" />
<circle cx="210.82" cy="591.3" r="1.6" fill="#2563eb" opacity="0.38" />
<circle cx="212.24" cy="591.21" r="1.6" fill="#2563eb" opacity="0.38" />
<circle cx="216.58" cy="591.09" r="1.6" fill="#2563eb" opacity="0.38" />
<circle cx="217.78" cy="591.04" r="1.6" fill="#2563eb" opacity="0.38" />
<circle cx="219.51" cy="590.94" r="1.6" fill="#2563eb" opacity="0.38" />
<circle cx="221.29" cy="590.79" r="1.6" fill="#2563eb" opacity="0.38" />
<circle cx="222.5" cy="590.72" r="1.6" fill="#2563eb" opacity="0.38" />
<circle cx="222.79" cy="590.68" r="1.6" fill="#2563eb" opacity="0.38" />
<circle cx="227.73" cy="590.62" r="1.6" fill="#2563eb" opacity="0.38" />
<circle cx="231.7" cy="590.58" r="1.6" fill="#2563eb" opacity="0.38" />
<circle cx="232.39" cy="589.27" r="1.6" fill="#2563eb" opacity="0.38" />
<circle cx="235" cy="589.23" r="1.6" fill="#2563eb" opacity="0.38" />
<circle cx="236.36" cy="587.4" r="1.6" fill="#2563eb" opacity="0.38" />
<circle cx="237.99" cy="586.58" r="1.6" fill="#2563eb" opacity="0.38" />
<circle cx="239.85" cy="586.35" r="1.6" fill="#2563eb" opacity="0.38" />
<circle cx="241.46" cy="586.19" r="1.6" fill="#2563eb" opacity="0.38" />
<circle cx="242.28" cy="585.76" r="1.6" fill="#2563eb" opacity="0.38" />
<circle cx="243.83" cy="585.51" r="1.6" fill="#2563eb" opacity="0.38" />
<circle cx="243.89" cy="585.44" r="1.6" fill="#2563eb" opacity="0.38" />
<circle cx="244.06" cy="584.67" r="1.6" fill="#2563eb" opacity="0.38" />
<circle cx="244.56" cy="584.63" r="1.6" fill="#2563eb" opacity="0.38" />
<circle cx="244.81" cy="584.36" r="1.6" fill="#2563eb" opacity="0.38" />
<circle cx="246.06" cy="584.32" r="1.6" fill="#2563eb" opacity="0.38" />
<circle cx="246.25" cy="583.61" r="1.6" fill="#2563eb" opacity="0.38" />
<circle cx="246.46" cy="583.6" r="1.6" fill="#2563eb" opacity="0.38" />
<circle cx="247.99" cy="582.44" r="1.6" fill="#2563eb" opacity="0.38" />
<circle cx="248.91" cy="581.94" r="1.6" fill="#2563eb" opacity="0.38" />
<circle cx="249.06" cy="581.62" r="1.6" fill="#2563eb" opacity="0.38" />
<circle cx="249.18" cy="580.96" r="1.6" fill="#2563eb" opacity="0.38" />
<circle cx="252.86" cy="580.83" r="1.6" fill="#2563eb" opacity="0.38" />
<circle cx="254.47" cy="580.6" r="1.6" fill="#2563eb" opacity="0.38" />
<circle cx="255.52" cy="579.97" r="1.6" fill="#2563eb" opacity="0.38" />
<circle cx="257.74" cy="579.83" r="1.6" fill="#2563eb" opacity="0.38" />
<circle cx="258.05" cy="578.32" r="1.6" fill="#2563eb" opacity="0.38" />
<circle cx="258.15" cy="577.85" r="1.6" fill="#2563eb" opacity="0.38" />
<circle cx="258.47" cy="577.79" r="1.6" fill="#2563eb" opacity="0.38" />
<circle cx="259.66" cy="577.11" r="1.6" fill="#2563eb" opacity="0.38" />
<circle cx="259.81" cy="577.05" r="1.6" fill="#2563eb" opacity="0.38" />
<circle cx="260.14" cy="576.67" r="1.6" fill="#2563eb" opacity="0.38" />
<circle cx="260.27" cy="576.28" r="1.6" fill="#2563eb" opacity="0.38" />
<circle cx="260.35" cy="575.94" r="1.6" fill="#2563eb" opacity="0.38" />
<circle cx="260.43" cy="575.94" r="1.6" fill="#2563eb" opacity="0.38" />
<circle cx="260.64" cy="575.66" r="1.6" fill="#2563eb" opacity="0.38" />
<circle cx="260.77" cy="571.04" r="1.6" fill="#2563eb" opacity="0.38" />
<circle cx="260.96" cy="570.25" r="1.6" fill="#2563eb" opacity="0.38" />
<circle cx="261.04" cy="570.11" r="1.6" fill="#2563eb" opacity="0.38" />
<circle cx="261.35" cy="569.94" r="1.6" fill="#2563eb" opacity="0.38" />
<circle cx="261.54" cy="568.42" r="1.6" fill="#2563eb" opacity="0.38" />
<circle cx="262.5" cy="567.37" r="1.6" fill="#2563eb" opacity="0.38" />
<circle cx="263.09" cy="567.18" r="1.6" fill="#2563eb" opacity="0.38" />
<circle cx="263.88" cy="566.48" r="1.6" fill="#2563eb" opacity="0.38" />
<circle cx="264.22" cy="565.95" r="1.6" fill="#2563eb" opacity="0.38" />
<circle cx="264.41" cy="565.45" r="1.6" fill="#2563eb" opacity="0.38" />
<circle cx="264.47" cy="563.95" r="1.6" fill="#2563eb" opacity="0.38" />
<circle cx="264.64" cy="562.35" r="1.6" fill="#2563eb" opacity="0.38" />
<circle cx="264.78" cy="562.35" r="1.6" fill="#2563eb" opacity="0.38" />
<circle cx="264.89" cy="560.59" r="1.6" fill="#2563eb" opacity="0.38" />
<circle cx="265.83" cy="560.04" r="1.6" fill="#2563eb" opacity="0.38" />
<circle cx="265.96" cy="559.89" r="1.6" fill="#2563eb" opacity="0.38" />
<circle cx="266.19" cy="558.1" r="1.6" fill="#2563eb" opacity="0.38" />
<circle cx="267.09" cy="556.02" r="1.6" fill="#2563eb" opacity="0.38" />
<circle cx="267.21" cy="553.71" r="1.6" fill="#2563eb" opacity="0.38" />
<circle cx="267.25" cy="549.76" r="1.6" fill="#2563eb" opacity="0.38" />
<circle cx="267.59" cy="548.04" r="1.6" fill="#2563eb" opacity="0.38" />
<circle cx="268.17" cy="547.92" r="1.6" fill="#2563eb" opacity="0.38" />
<circle cx="268.38" cy="547.74" r="1.6" fill="#2563eb" opacity="0.38" />
<circle cx="268.67" cy="546.98" r="1.6" fill="#2563eb" opacity="0.38" />
<circle cx="268.76" cy="546.97" r="1.6" fill="#2563eb" opacity="0.38" />
<circle cx="269.01" cy="546.48" r="1.6" fill="#2563eb" opacity="0.38" />
<circle cx="269.11" cy="546.43" r="1.6" fill="#2563eb" opacity="0.38" />
<circle cx="269.18" cy="545.39" r="1.6" fill="#2563eb" opacity="0.38" />
<circle cx="269.24" cy="543.94" r="1.6" fill="#2563eb" opacity="0.38" />
<circle cx="269.45" cy="542.17" r="1.6" fill="#2563eb" opacity="0.38" />
<circle cx="269.95" cy="541.94" r="1.6" fill="#2563eb" opacity="0.38" />
<circle cx="270.1" cy="541.93" r="1.6" fill="#2563eb" opacity="0.38" />
<circle cx="270.47" cy="541.88" r="1.6" fill="#2563eb" opacity="0.38" />
<circle cx="270.72" cy="541.66" r="1.6" fill="#2563eb" opacity="0.38" />
<circle cx="271.6" cy="540.32" r="1.6" fill="#2563eb" opacity="0.38" />
<circle cx="272.23" cy="539.98" r="1.6" fill="#2563eb" opacity="0.38" />
<circle cx="272.36" cy="539.63" r="1.6" fill="#2563eb" opacity="0.38" />
<circle cx="272.52" cy="537.63" r="1.6" fill="#2563eb" opacity="0.38" />
<circle cx="272.61" cy="533.22" r="1.6" fill="#2563eb" opacity="0.38" />
<circle cx="272.96" cy="532.85" r="1.6" fill="#2563eb" opacity="0.38" />
<circle cx="273.44" cy="532.83" r="1.6" fill="#2563eb" opacity="0.38" />
<circle cx="274.8" cy="531.83" r="1.6" fill="#2563eb" opacity="0.38" />
<circle cx="275.3" cy="531.39" r="1.6" fill="#2563eb" opacity="0.38" />
<circle cx="275.62" cy="526.03" r="1.6" fill="#2563eb" opacity="0.38" />
<circle cx="275.93" cy="521.73" r="1.6" fill="#2563eb" opacity="0.38" />
<circle cx="277.9" cy="521.33" r="1.6" fill="#2563eb" opacity="0.38" />
<circle cx="279.68" cy="521.12" r="1.6" fill="#2563eb" opacity="0.38" />
<circle cx="280.14" cy="517.86" r="1.6" fill="#2563eb" opacity="0.38" />
<circle cx="280.31" cy="517.85" r="1.6" fill="#2563eb" opacity="0.38" />
<circle cx="280.5" cy="517.02" r="1.6" fill="#2563eb" opacity="0.38" />
<circle cx="280.79" cy="510.84" r="1.6" fill="#2563eb" opacity="0.38" />
<circle cx="281" cy="510.7" r="1.6" fill="#2563eb" opacity="0.38" />
<circle cx="281.37" cy="505.22" r="1.6" fill="#2563eb" opacity="0.38" />
<circle cx="281.54" cy="502.37" r="1.6" fill="#2563eb" opacity="0.38" />
<circle cx="282.82" cy="500.5" r="1.6" fill="#2563eb" opacity="0.38" />
<circle cx="283.01" cy="499.17" r="1.6" fill="#2563eb" opacity="0.38" />
<circle cx="284.97" cy="499.11" r="1.6" fill="#2563eb" opacity="0.38" />
<circle cx="285.62" cy="499.09" r="1.6" fill="#2563eb" opacity="0.38" />
<circle cx="285.91" cy="498.98" r="1.6" fill="#2563eb" opacity="0.38" />
<circle cx="285.95" cy="498.96" r="1.6" fill="#2563eb" opacity="0.38" />
<circle cx="286.14" cy="498.73" r="1.6" fill="#2563eb" opacity="0.38" />
<circle cx="286.62" cy="497.98" r="1.6" fill="#2563eb" opacity="0.38" />
<circle cx="288.11" cy="497" r="1.6" fill="#2563eb" opacity="0.38" />
<circle cx="288.63" cy="496.94" r="1.6" fill="#2563eb" opacity="0.38" />
<circle cx="289.05" cy="496.1" r="1.6" fill="#2563eb" opacity="0.38" />
<circle cx="289.24" cy="493.96" r="1.6" fill="#2563eb" opacity="0.38" />
<circle cx="291.75" cy="492.29" r="1.6" fill="#2563eb" opacity="0.38" />
<circle cx="293.11" cy="492.28" r="1.6" fill="#2563eb" opacity="0.38" />
<circle cx="293.13" cy="492.26" r="1.6" fill="#2563eb" opacity="0.38" />
<circle cx="293.46" cy="488.94" r="1.6" fill="#2563eb" opacity="0.38" />
<circle cx="293.94" cy="488.87" r="1.6" fill="#2563eb" opacity="0.38" />
<circle cx="294.17" cy="488.8" r="1.6" fill="#2563eb" opacity="0.38" />
<circle cx="295.89" cy="487.94" r="1.6" fill="#2563eb" opacity="0.38" />
<circle cx="296.01" cy="487.52" r="1.6" fill="#2563eb" opacity="0.38" />
<circle cx="296.54" cy="487.18" r="1.6" fill="#2563eb" opacity="0.38" />
<circle cx="298.02" cy="486.91" r="1.6" fill="#2563eb" opacity="0.38" />
<circle cx="298.9" cy="486.12" r="1.6" fill="#2563eb" opacity="0.38" />
<circle cx="301.93" cy="485.86" r="1.6" fill="#2563eb" opacity="0.38" />
<circle cx="302.37" cy="484.74" r="1.6" fill="#2563eb" opacity="0.38" />
<circle cx="302.5" cy="484.56" r="1.6" fill="#2563eb" opacity="0.38" />
<circle cx="302.62" cy="481.62" r="1.6" fill="#2563eb" opacity="0.38" />
<circle cx="302.96" cy="480.64" r="1.6" fill="#2563eb" opacity="0.38" />
<circle cx="303.86" cy="480.4" r="1.6" fill="#2563eb" opacity="0.38" />
<circle cx="304.13" cy="479.91" r="1.6" fill="#2563eb" opacity="0.38" />
<circle cx="304.21" cy="479.87" r="1.6" fill="#2563eb" opacity="0.38" />
<circle cx="305.22" cy="479.74" r="1.6" fill="#2563eb" opacity="0.38" />
<circle cx="305.32" cy="479.1" r="1.6" fill="#2563eb" opacity="0.38" />
<circle cx="305.59" cy="477.25" r="1.6" fill="#2563eb" opacity="0.38" />
<circle cx="305.7" cy="476.89" r="1.6" fill="#2563eb" opacity="0.38" />
<circle cx="307.18" cy="476.48" r="1.6" fill="#2563eb" opacity="0.38" />
<circle cx="307.45" cy="476.43" r="1.6" fill="#2563eb" opacity="0.38" />
<circle cx="311.07" cy="475.32" r="1.6" fill="#2563eb" opacity="0.38" />
<circle cx="311.26" cy="474.73" r="1.6" fill="#2563eb" opacity="0.38" />
<circle cx="311.43" cy="474.72" r="1.6" fill="#2563eb" opacity="0.38" />
<circle cx="311.57" cy="474.6" r="1.6" fill="#2563eb" opacity="0.38" />
<circle cx="312.08" cy="474.55" r="1.6" fill="#2563eb" opacity="0.38" />
<circle cx="312.22" cy="474.55" r="1.6" fill="#2563eb" opacity="0.38" />
<circle cx="312.43" cy="468.97" r="1.6" fill="#2563eb" opacity="0.38" />
<circle cx="313.39" cy="466.29" r="1.6" fill="#2563eb" opacity="0.38" />
<circle cx="315.86" cy="466.29" r="1.6" fill="#2563eb" opacity="0.38" />
<circle cx="315.92" cy="465.83" r="1.6" fill="#2563eb" opacity="0.38" />
<circle cx="317.16" cy="465.69" r="1.6" fill="#2563eb" opacity="0.38" />
<circle cx="317.18" cy="465.15" r="1.6" fill="#2563eb" opacity="0.38" />
<circle cx="317.2" cy="462.55" r="1.6" fill="#2563eb" opacity="0.38" />
<circle cx="317.55" cy="458.24" r="1.6" fill="#2563eb" opacity="0.38" />
<circle cx="317.64" cy="457.09" r="1.6" fill="#2563eb" opacity="0.38" />
<circle cx="321" cy="456.59" r="1.6" fill="#2563eb" opacity="0.38" />
<circle cx="326.73" cy="454.84" r="1.6" fill="#2563eb" opacity="0.38" />
<circle cx="326.88" cy="453.81" r="1.6" fill="#2563eb" opacity="0.38" />
<circle cx="327.34" cy="451.05" r="1.6" fill="#2563eb" opacity="0.38" />
<circle cx="327.57" cy="449.84" r="1.6" fill="#2563eb" opacity="0.38" />
<circle cx="327.72" cy="449.84" r="1.6" fill="#2563eb" opacity="0.38" />
<circle cx="330.44" cy="449.66" r="1.6" fill="#2563eb" opacity="0.38" />
<circle cx="331.1" cy="449.62" r="1.6" fill="#2563eb" opacity="0.38" />
<circle cx="331.19" cy="449.62" r="1.6" fill="#2563eb" opacity="0.38" />
<circle cx="332.28" cy="448.38" r="1.6" fill="#2563eb" opacity="0.38" />
<circle cx="332.95" cy="443.54" r="1.6" fill="#2563eb" opacity="0.38" />
<circle cx="335.79" cy="443.32" r="1.6" fill="#2563eb" opacity="0.38" />
<circle cx="337.71" cy="443.16" r="1.6" fill="#2563eb" opacity="0.38" />
<circle cx="338.01" cy="440.31" r="1.6" fill="#2563eb" opacity="0.38" />
<circle cx="343.78" cy="439.34" r="1.6" fill="#2563eb" opacity="0.38" />
<circle cx="343.8" cy="437.3" r="1.6" fill="#2563eb" opacity="0.38" />
<circle cx="343.97" cy="436.58" r="1.6" fill="#2563eb" opacity="0.38" />
<circle cx="344.26" cy="435.94" r="1.6" fill="#2563eb" opacity="0.38" />
<circle cx="344.34" cy="434.79" r="1.6" fill="#2563eb" opacity="0.38" />
<circle cx="344.53" cy="434.17" r="1.6" fill="#2563eb" opacity="0.38" />
<circle cx="344.66" cy="433.95" r="1.6" fill="#2563eb" opacity="0.38" />
<circle cx="344.78" cy="433.93" r="1.6" fill="#2563eb" opacity="0.38" />
<circle cx="345.35" cy="433.9" r="1.6" fill="#2563eb" opacity="0.38" />
<circle cx="346.56" cy="433.83" r="1.6" fill="#2563eb" opacity="0.38" />
<circle cx="346.71" cy="433.82" r="1.6" fill="#2563eb" opacity="0.38" />
<circle cx="351.79" cy="433.57" r="1.6" fill="#2563eb" opacity="0.38" />
<circle cx="354.85" cy="433.4" r="1.6" fill="#2563eb" opacity="0.38" />
<circle cx="354.87" cy="433.28" r="1.6" fill="#2563eb" opacity="0.38" />
<circle cx="358.95" cy="433" r="1.6" fill="#2563eb" opacity="0.38" />
<circle cx="358.97" cy="432.99" r="1.6" fill="#2563eb" opacity="0.38" />
<circle cx="362.57" cy="432.89" r="1.6" fill="#2563eb" opacity="0.38" />
<circle cx="363.11" cy="432.79" r="1.6" fill="#2563eb" opacity="0.38" />
<circle cx="363.17" cy="432.38" r="1.6" fill="#2563eb" opacity="0.38" />
<circle cx="369.39" cy="431.95" r="1.6" fill="#2563eb" opacity="0.38" />
<circle cx="369.43" cy="430.29" r="1.6" fill="#2563eb" opacity="0.38" />
<circle cx="369.76" cy="430.18" r="1.6" fill="#2563eb" opacity="0.38" />
<circle cx="369.89" cy="429.84" r="1.6" fill="#2563eb" opacity="0.38" />
<circle cx="370.08" cy="429.8" r="1.6" fill="#2563eb" opacity="0.38" />
<circle cx="370.12" cy="429.6" r="1.6" fill="#2563eb" opacity="0.38" />
<circle cx="375.84" cy="429.49" r="1.6" fill="#2563eb" opacity="0.38" />
<circle cx="377.2" cy="428.48" r="1.6" fill="#2563eb" opacity="0.38" />
<circle cx="377.22" cy="427.92" r="1.6" fill="#2563eb" opacity="0.38" />
<circle cx="381.47" cy="427.91" r="1.6" fill="#2563eb" opacity="0.38" />
<circle cx="381.68" cy="427.71" r="1.6" fill="#2563eb" opacity="0.38" />
<circle cx="382.62" cy="427.71" r="1.6" fill="#2563eb" opacity="0.38" />
<circle cx="382.85" cy="426.93" r="1.6" fill="#2563eb" opacity="0.38" />
<circle cx="383.02" cy="426.87" r="1.6" fill="#2563eb" opacity="0.38" />
<circle cx="383.04" cy="425.56" r="1.6" fill="#2563eb" opacity="0.38" />
<circle cx="385.34" cy="425.34" r="1.6" fill="#2563eb" opacity="0.38" />
<circle cx="387.34" cy="425.21" r="1.6" fill="#2563eb" opacity="0.38" />
<circle cx="391.06" cy="424.97" r="1.6" fill="#2563eb" opacity="0.38" />
<circle cx="391.63" cy="424.79" r="1.6" fill="#2563eb" opacity="0.38" />
<circle cx="391.69" cy="421.84" r="1.6" fill="#2563eb" opacity="0.38" />
<circle cx="396.71" cy="421.51" r="1.6" fill="#2563eb" opacity="0.38" />
<circle cx="396.73" cy="421.5" r="1.6" fill="#2563eb" opacity="0.38" />
<circle cx="397" cy="421.48" r="1.6" fill="#2563eb" opacity="0.38" />
<circle cx="397.07" cy="421.3" r="1.6" fill="#2563eb" opacity="0.38" />
<circle cx="397.3" cy="421.28" r="1.6" fill="#2563eb" opacity="0.38" />
<circle cx="397.32" cy="421.27" r="1.6" fill="#2563eb" opacity="0.38" />
<circle cx="397.63" cy="419.72" r="1.6" fill="#2563eb" opacity="0.38" />
<circle cx="397.9" cy="419.68" r="1.6" fill="#2563eb" opacity="0.38" />
<circle cx="397.94" cy="419.41" r="1.6" fill="#2563eb" opacity="0.38" />
<circle cx="398.53" cy="418.43" r="1.6" fill="#2563eb" opacity="0.38" />
<circle cx="398.57" cy="418.27" r="1.6" fill="#2563eb" opacity="0.38" />
<circle cx="398.72" cy="418.11" r="1.6" fill="#2563eb" opacity="0.38" />
<circle cx="398.99" cy="415.25" r="1.6" fill="#2563eb" opacity="0.38" />
<circle cx="401.72" cy="415.19" r="1.6" fill="#2563eb" opacity="0.38" />
<circle cx="402.06" cy="415.15" r="1.6" fill="#2563eb" opacity="0.38" />
<circle cx="416.55" cy="414.78" r="1.6" fill="#2563eb" opacity="0.38" />
<circle cx="416.62" cy="413.41" r="1.6" fill="#2563eb" opacity="0.38" />
<circle cx="416.99" cy="412.88" r="1.6" fill="#2563eb" opacity="0.38" />
<circle cx="446.67" cy="412.82" r="1.6" fill="#2563eb" opacity="0.38" />
<circle cx="447.59" cy="412.78" r="1.6" fill="#2563eb" opacity="0.38" />
<circle cx="447.67" cy="412.05" r="1.6" fill="#2563eb" opacity="0.38" />
<circle cx="448.2" cy="411.26" r="1.6" fill="#2563eb" opacity="0.38" />
<circle cx="448.3" cy="410.87" r="1.6" fill="#2563eb" opacity="0.38" />
<circle cx="454.76" cy="410.26" r="1.6" fill="#2563eb" opacity="0.38" />
<circle cx="455.18" cy="410.11" r="1.6" fill="#2563eb" opacity="0.38" />
<circle cx="456.38" cy="410.07" r="1.6" fill="#2563eb" opacity="0.38" />
<circle cx="457.38" cy="409.24" r="1.6" fill="#2563eb" opacity="0.38" />
<circle cx="457.82" cy="408.99" r="1.6" fill="#2563eb" opacity="0.38" />
<circle cx="458.13" cy="408.75" r="1.6" fill="#2563eb" opacity="0.38" />
<circle cx="458.34" cy="408.44" r="1.6" fill="#2563eb" opacity="0.38" />
<circle cx="459.64" cy="406.56" r="1.6" fill="#2563eb" opacity="0.38" />
<circle cx="461.48" cy="406.43" r="1.6" fill="#2563eb" opacity="0.38" />
<circle cx="463.15" cy="402.6" r="1.6" fill="#2563eb" opacity="0.38" />
<circle cx="463.49" cy="400.78" r="1.6" fill="#2563eb" opacity="0.38" />
<circle cx="463.63" cy="400.57" r="1.6" fill="#2563eb" opacity="0.38" />
<circle cx="463.97" cy="399.89" r="1.6" fill="#2563eb" opacity="0.38" />
<circle cx="483.57" cy="399.59" r="1.6" fill="#2563eb" opacity="0.38" />
<circle cx="483.72" cy="397.17" r="1.6" fill="#2563eb" opacity="0.38" />
<circle cx="483.86" cy="397" r="1.6" fill="#2563eb" opacity="0.38" />
<circle cx="485.24" cy="396.44" r="1.6" fill="#2563eb" opacity="0.38" />
<circle cx="485.72" cy="396.04" r="1.6" fill="#2563eb" opacity="0.38" />
<circle cx="490.32" cy="395.82" r="1.6" fill="#2563eb" opacity="0.38" />
<circle cx="490.35" cy="394.4" r="1.6" fill="#2563eb" opacity="0.38" />
<circle cx="491.14" cy="393.98" r="1.6" fill="#2563eb" opacity="0.38" />
<circle cx="493.48" cy="393.93" r="1.6" fill="#2563eb" opacity="0.38" />
<circle cx="494.55" cy="393.81" r="1.6" fill="#2563eb" opacity="0.38" />
<circle cx="494.74" cy="393.64" r="1.6" fill="#2563eb" opacity="0.38" />
<circle cx="494.97" cy="392.02" r="1.6" fill="#2563eb" opacity="0.38" />
<circle cx="495.05" cy="386.4" r="1.6" fill="#2563eb" opacity="0.38" />
<circle cx="495.13" cy="385.82" r="1.6" fill="#2563eb" opacity="0.38" />
<circle cx="495.16" cy="384.86" r="1.6" fill="#2563eb" opacity="0.38" />
<circle cx="495.2" cy="384.58" r="1.6" fill="#2563eb" opacity="0.38" />
<circle cx="495.24" cy="383.87" r="1.6" fill="#2563eb" opacity="0.38" />
<circle cx="498.17" cy="383.25" r="1.6" fill="#2563eb" opacity="0.38" />
<circle cx="498.19" cy="383.25" r="1.6" fill="#2563eb" opacity="0.38" />
<circle cx="498.46" cy="383.24" r="1.6" fill="#2563eb" opacity="0.38" />
<circle cx="499.11" cy="383.23" r="1.6" fill="#2563eb" opacity="0.38" />
<circle cx="499.36" cy="383.17" r="1.6" fill="#2563eb" opacity="0.38" />
<circle cx="499.46" cy="382.01" r="1.6" fill="#2563eb" opacity="0.38" />
<circle cx="499.57" cy="381.78" r="1.6" fill="#2563eb" opacity="0.38" />
<circle cx="499.67" cy="380.88" r="1.6" fill="#2563eb" opacity="0.38" />
<circle cx="500.26" cy="380.77" r="1.6" fill="#2563eb" opacity="0.38" />
<circle cx="500.28" cy="380.08" r="1.6" fill="#2563eb" opacity="0.38" />
<circle cx="500.82" cy="379.88" r="1.6" fill="#2563eb" opacity="0.38" />
<circle cx="501.24" cy="379.87" r="1.6" fill="#2563eb" opacity="0.38" />
<circle cx="501.41" cy="378.89" r="1.6" fill="#2563eb" opacity="0.38" />
<circle cx="509.16" cy="378.59" r="1.6" fill="#2563eb" opacity="0.38" />
<circle cx="523.49" cy="376.87" r="1.6" fill="#2563eb" opacity="0.38" />
<circle cx="523.88" cy="374.86" r="1.6" fill="#2563eb" opacity="0.38" />
<circle cx="524.72" cy="373.87" r="1.6" fill="#2563eb" opacity="0.38" />
<circle cx="524.95" cy="372.76" r="1.6" fill="#2563eb" opacity="0.38" />
<circle cx="524.97" cy="372.29" r="1.6" fill="#2563eb" opacity="0.38" />
<circle cx="525.2" cy="372.23" r="1.6" fill="#2563eb" opacity="0.38" />
<circle cx="528.63" cy="371.08" r="1.6" fill="#2563eb" opacity="0.38" />
<circle cx="529.24" cy="371" r="1.6" fill="#2563eb" opacity="0.38" />
<circle cx="529.34" cy="369.72" r="1.6" fill="#2563eb" opacity="0.38" />
<circle cx="529.36" cy="367.83" r="1.6" fill="#2563eb" opacity="0.38" />
<circle cx="529.38" cy="365.27" r="1.6" fill="#2563eb" opacity="0.38" />
<circle cx="530.22" cy="365.23" r="1.6" fill="#2563eb" opacity="0.38" />
<circle cx="530.26" cy="364.09" r="1.6" fill="#2563eb" opacity="0.38" />
<circle cx="530.39" cy="363.29" r="1.6" fill="#2563eb" opacity="0.38" />
<circle cx="530.62" cy="363.19" r="1.6" fill="#2563eb" opacity="0.38" />
<circle cx="530.87" cy="363.16" r="1.6" fill="#2563eb" opacity="0.38" />
<circle cx="540.97" cy="362.99" r="1.6" fill="#2563eb" opacity="0.38" />
<circle cx="541.39" cy="362.75" r="1.6" fill="#2563eb" opacity="0.38" />
<circle cx="541.62" cy="362.69" r="1.6" fill="#2563eb" opacity="0.38" />
<circle cx="541.68" cy="361.26" r="1.6" fill="#2563eb" opacity="0.38" />
<circle cx="541.89" cy="360.33" r="1.6" fill="#2563eb" opacity="0.38" />
<circle cx="542.14" cy="360.26" r="1.6" fill="#2563eb" opacity="0.38" />
<circle cx="542.37" cy="359.4" r="1.6" fill="#2563eb" opacity="0.38" />
<circle cx="544.11" cy="356.87" r="1.6" fill="#2563eb" opacity="0.38" />
<circle cx="553.19" cy="349.66" r="1.6" fill="#2563eb" opacity="0.38" />
<circle cx="553.21" cy="349.65" r="1.6" fill="#2563eb" opacity="0.38" />
<circle cx="553.46" cy="349.65" r="1.6" fill="#2563eb" opacity="0.38" />
<circle cx="554.65" cy="349.22" r="1.6" fill="#2563eb" opacity="0.38" />
<circle cx="554.91" cy="348.1" r="1.6" fill="#2563eb" opacity="0.38" />
<circle cx="555.24" cy="347.96" r="1.6" fill="#2563eb" opacity="0.38" />
<circle cx="555.49" cy="347.89" r="1.6" fill="#2563eb" opacity="0.38" />
<circle cx="556.75" cy="343.17" r="1.6" fill="#2563eb" opacity="0.38" />
<circle cx="557.16" cy="342.52" r="1.6" fill="#2563eb" opacity="0.38" />
<circle cx="557.6" cy="341.92" r="1.6" fill="#2563eb" opacity="0.38" />
<circle cx="590.79" cy="341.72" r="1.6" fill="#2563eb" opacity="0.38" />
<circle cx="590.84" cy="341.65" r="1.6" fill="#2563eb" opacity="0.38" />
<circle cx="590.94" cy="341.46" r="1.6" fill="#2563eb" opacity="0.38" />
<circle cx="591.19" cy="335.11" r="1.6" fill="#2563eb" opacity="0.38" />
<circle cx="594.62" cy="335.07" r="1.6" fill="#2563eb" opacity="0.38" />
<circle cx="606.63" cy="334.67" r="1.6" fill="#2563eb" opacity="0.38" />
<circle cx="606.67" cy="334.43" r="1.6" fill="#2563eb" opacity="0.38" />
<circle cx="606.84" cy="333.99" r="1.6" fill="#2563eb" opacity="0.38" />
<circle cx="607.17" cy="330.02" r="1.6" fill="#2563eb" opacity="0.38" />
<circle cx="611.78" cy="329.57" r="1.6" fill="#2563eb" opacity="0.38" />
<circle cx="612.09" cy="324.77" r="1.6" fill="#2563eb" opacity="0.38" />
<circle cx="612.53" cy="323.72" r="1.6" fill="#2563eb" opacity="0.38" />
<circle cx="612.76" cy="321.69" r="1.6" fill="#2563eb" opacity="0.38" />
<circle cx="612.82" cy="321.69" r="1.6" fill="#2563eb" opacity="0.38" />
<circle cx="614.29" cy="318.16" r="1.6" fill="#2563eb" opacity="0.38" />
<circle cx="614.5" cy="318.08" r="1.6" fill="#2563eb" opacity="0.38" />
<circle cx="615.1" cy="312.51" r="1.6" fill="#2563eb" opacity="0.38" />
<circle cx="629.93" cy="307.47" r="1.6" fill="#2563eb" opacity="0.38" />
<circle cx="630.39" cy="307.39" r="1.6" fill="#2563eb" opacity="0.38" />
<circle cx="631.41" cy="301.86" r="1.6" fill="#2563eb" opacity="0.38" />
<circle cx="631.56" cy="298.28" r="1.6" fill="#2563eb" opacity="0.38" />
<circle cx="635.47" cy="298.27" r="1.6" fill="#2563eb" opacity="0.38" />
<circle cx="636.68" cy="298.01" r="1.6" fill="#2563eb" opacity="0.38" />
<circle cx="639.63" cy="297.99" r="1.6" fill="#2563eb" opacity="0.38" />
<circle cx="641.45" cy="297.54" r="1.6" fill="#2563eb" opacity="0.38" />
<circle cx="641.95" cy="287.69" r="1.6" fill="#2563eb" opacity="0.38" />
<circle cx="642.25" cy="286.89" r="1.6" fill="#2563eb" opacity="0.38" />
<circle cx="643.67" cy="284.06" r="1.6" fill="#2563eb" opacity="0.38" />
<circle cx="643.82" cy="283.6" r="1.6" fill="#2563eb" opacity="0.38" />
<circle cx="650.7" cy="282.39" r="1.6" fill="#2563eb" opacity="0.38" />
<circle cx="650.95" cy="281.13" r="1.6" fill="#2563eb" opacity="0.38" />
<circle cx="651.37" cy="281.1" r="1.6" fill="#2563eb" opacity="0.38" />
<circle cx="654.49" cy="281.07" r="1.6" fill="#2563eb" opacity="0.38" />
<circle cx="654.51" cy="280.98" r="1.6" fill="#2563eb" opacity="0.38" />
<circle cx="654.76" cy="265.73" r="1.6" fill="#2563eb" opacity="0.38" />
<circle cx="663.44" cy="264.75" r="1.6" fill="#2563eb" opacity="0.38" />
<circle cx="664.99" cy="251.76" r="1.6" fill="#2563eb" opacity="0.38" />
<circle cx="665.65" cy="251.23" r="1.6" fill="#2563eb" opacity="0.38" />
<circle cx="667.29" cy="250.97" r="1.6" fill="#2563eb" opacity="0.38" />
<circle cx="667.33" cy="250.89" r="1.6" fill="#2563eb" opacity="0.38" />
<circle cx="667.35" cy="250.31" r="1.6" fill="#2563eb" opacity="0.38" />
<circle cx="673.94" cy="249.4" r="1.6" fill="#2563eb" opacity="0.38" />
<circle cx="673.98" cy="240.76" r="1.6" fill="#2563eb" opacity="0.38" />
<circle cx="674" cy="240.23" r="1.6" fill="#2563eb" opacity="0.38" />
<circle cx="674.65" cy="239.84" r="1.6" fill="#2563eb" opacity="0.38" />
<circle cx="691.84" cy="239.8" r="1.6" fill="#2563eb" opacity="0.38" />
<circle cx="692.2" cy="239.79" r="1.6" fill="#2563eb" opacity="0.38" />
<circle cx="693.75" cy="239.29" r="1.6" fill="#2563eb" opacity="0.38" />
<circle cx="694.48" cy="238.81" r="1.6" fill="#2563eb" opacity="0.38" />
<circle cx="697.45" cy="238.45" r="1.6" fill="#2563eb" opacity="0.38" />
<circle cx="697.72" cy="226.46" r="1.6" fill="#2563eb" opacity="0.38" />
<circle cx="699.48" cy="226.45" r="1.6" fill="#2563eb" opacity="0.38" />
<circle cx="700.05" cy="218.67" r="1.6" fill="#2563eb" opacity="0.38" />
<circle cx="700.3" cy="218.03" r="1.6" fill="#2563eb" opacity="0.38" />
<circle cx="712.6" cy="216.99" r="1.6" fill="#2563eb" opacity="0.38" />
<circle cx="719.33" cy="216.07" r="1.6" fill="#2563eb" opacity="0.38" />
<circle cx="719.45" cy="214.79" r="1.6" fill="#2563eb" opacity="0.38" />
<circle cx="720.12" cy="214.58" r="1.6" fill="#2563eb" opacity="0.38" />
<circle cx="720.27" cy="214.41" r="1.6" fill="#2563eb" opacity="0.38" />
<circle cx="721.08" cy="214.39" r="1.6" fill="#2563eb" opacity="0.38" />
<circle cx="721.15" cy="213.8" r="1.6" fill="#2563eb" opacity="0.38" />
<circle cx="721.31" cy="213.5" r="1.6" fill="#2563eb" opacity="0.38" />
<circle cx="721.52" cy="213.49" r="1.6" fill="#2563eb" opacity="0.38" />
<circle cx="721.58" cy="213.2" r="1.6" fill="#2563eb" opacity="0.38" />
<circle cx="721.61" cy="212.88" r="1.6" fill="#2563eb" opacity="0.38" />
<circle cx="721.75" cy="210.63" r="1.6" fill="#2563eb" opacity="0.38" />
<circle cx="721.81" cy="206.24" r="1.6" fill="#2563eb" opacity="0.38" />
<circle cx="726.04" cy="205.56" r="1.6" fill="#2563eb" opacity="0.38" />
<circle cx="726.08" cy="205.41" r="1.6" fill="#2563eb" opacity="0.38" />
<circle cx="728.69" cy="205.41" r="1.6" fill="#2563eb" opacity="0.38" />
<circle cx="728.73" cy="204.38" r="1.6" fill="#2563eb" opacity="0.38" />
<circle cx="735.15" cy="203.86" r="1.6" fill="#2563eb" opacity="0.38" />
<circle cx="736.2" cy="203.86" r="1.6" fill="#2563eb" opacity="0.38" />
<circle cx="743.73" cy="203.67" r="1.6" fill="#2563eb" opacity="0.38" />
<circle cx="745.65" cy="197.03" r="1.6" fill="#2563eb" opacity="0.38" />
<circle cx="757.99" cy="196.78" r="1.6" fill="#2563eb" opacity="0.38" />
<circle cx="758.22" cy="196.46" r="1.6" fill="#2563eb" opacity="0.38" />
<circle cx="762.44" cy="196.16" r="1.6" fill="#2563eb" opacity="0.38" />
<circle cx="762.55" cy="194.6" r="1.6" fill="#2563eb" opacity="0.38" />
<circle cx="762.63" cy="194.42" r="1.6" fill="#2563eb" opacity="0.38" />
<circle cx="764.81" cy="193.49" r="1.6" fill="#2563eb" opacity="0.38" />
<circle cx="764.87" cy="192.15" r="1.6" fill="#2563eb" opacity="0.38" />
<circle cx="765.81" cy="190.17" r="1.6" fill="#2563eb" opacity="0.38" />
<circle cx="765.87" cy="189.37" r="1.6" fill="#2563eb" opacity="0.38" />
<circle cx="766.15" cy="189.13" r="1.6" fill="#2563eb" opacity="0.38" />
<circle cx="766.27" cy="186.02" r="1.6" fill="#2563eb" opacity="0.38" />
<circle cx="766.29" cy="186.01" r="1.6" fill="#2563eb" opacity="0.38" />
<circle cx="768.87" cy="183.35" r="1.6" fill="#2563eb" opacity="0.38" />
<circle cx="769.43" cy="182.27" r="1.6" fill="#2563eb" opacity="0.38" />
<circle cx="770.79" cy="182.11" r="1.6" fill="#2563eb" opacity="0.38" />
<circle cx="770.94" cy="181.46" r="1.6" fill="#2563eb" opacity="0.38" />
<circle cx="772.34" cy="181.31" r="1.6" fill="#2563eb" opacity="0.38" />
<circle cx="772.5" cy="180.67" r="1.6" fill="#2563eb" opacity="0.38" />
<circle cx="773.19" cy="171.23" r="1.6" fill="#2563eb" opacity="0.38" />
<circle cx="773.49" cy="170.76" r="1.6" fill="#2563eb" opacity="0.38" />
<circle cx="773.88" cy="170.46" r="1.6" fill="#2563eb" opacity="0.38" />
<circle cx="774.01" cy="168.52" r="1.6" fill="#2563eb" opacity="0.38" />
<circle cx="774.18" cy="167.77" r="1.6" fill="#2563eb" opacity="0.38" />
<circle cx="774.91" cy="167.71" r="1.6" fill="#2563eb" opacity="0.38" />
<circle cx="775.06" cy="167.69" r="1.6" fill="#2563eb" opacity="0.38" />
<circle cx="775.2" cy="164.42" r="1.6" fill="#2563eb" opacity="0.38" />
<circle cx="783.1" cy="164.07" r="1.6" fill="#2563eb" opacity="0.38" />
<circle cx="783.48" cy="161.01" r="1.6" fill="#2563eb" opacity="0.38" />
<circle cx="783.82" cy="155.75" r="1.6" fill="#2563eb" opacity="0.38" />
<circle cx="799.69" cy="155.73" r="1.6" fill="#2563eb" opacity="0.38" />
<circle cx="807.2" cy="155.48" r="1.6" fill="#2563eb" opacity="0.38" />
<circle cx="819.57" cy="155.47" r="1.6" fill="#2563eb" opacity="0.38" />
<circle cx="826.22" cy="153.5" r="1.6" fill="#2563eb" opacity="0.38" />
<circle cx="826.64" cy="153.19" r="1.6" fill="#2563eb" opacity="0.38" />
<circle cx="826.83" cy="152.68" r="1.6" fill="#2563eb" opacity="0.38" />
<circle cx="826.85" cy="152.65" r="1.6" fill="#2563eb" opacity="0.38" />
<circle cx="826.93" cy="152.64" r="1.6" fill="#2563eb" opacity="0.38" />
<circle cx="827.12" cy="152.56" r="1.6" fill="#2563eb" opacity="0.38" />
<circle cx="827.22" cy="152.56" r="1.6" fill="#2563eb" opacity="0.38" />
<circle cx="831.66" cy="152.48" r="1.6" fill="#2563eb" opacity="0.38" />
<circle cx="831.82" cy="152.45" r="1.6" fill="#2563eb" opacity="0.38" />
<circle cx="833.37" cy="152.42" r="1.6" fill="#2563eb" opacity="0.38" />
<circle cx="833.52" cy="151.97" r="1.6" fill="#2563eb" opacity="0.38" />
<circle cx="833.62" cy="151.18" r="1.6" fill="#2563eb" opacity="0.38" />
<circle cx="833.89" cy="151.13" r="1.6" fill="#2563eb" opacity="0.38" />
<circle cx="834.94" cy="150.9" r="1.6" fill="#2563eb" opacity="0.38" />
<circle cx="835.96" cy="150.83" r="1.6" fill="#2563eb" opacity="0.38" />
<circle cx="843.36" cy="150.77" r="1.6" fill="#2563eb" opacity="0.38" />
<circle cx="843.67" cy="149.84" r="1.6" fill="#2563eb" opacity="0.38" />
<circle cx="843.69" cy="149.45" r="1.6" fill="#2563eb" opacity="0.38" />
<circle cx="843.75" cy="149.45" r="1.6" fill="#2563eb" opacity="0.38" />
<circle cx="847.16" cy="145.65" r="1.6" fill="#2563eb" opacity="0.38" />
<circle cx="852.16" cy="145.22" r="1.6" fill="#2563eb" opacity="0.38" />
<circle cx="856.6" cy="140.77" r="1.6" fill="#2563eb" opacity="0.38" />
<circle cx="861.03" cy="139.8" r="1.6" fill="#2563eb" opacity="0.38" />
<circle cx="863.96" cy="139.73" r="1.6" fill="#2563eb" opacity="0.38" />
<circle cx="867.89" cy="139.67" r="1.6" fill="#2563eb" opacity="0.38" />
<circle cx="877.31" cy="139.2" r="1.6" fill="#2563eb" opacity="0.38" />
<circle cx="877.66" cy="138.99" r="1.6" fill="#2563eb" opacity="0.38" />
<circle cx="877.83" cy="138" r="1.6" fill="#2563eb" opacity="0.38" />
<circle cx="878.08" cy="137.72" r="1.6" fill="#2563eb" opacity="0.38" />
<circle cx="881.32" cy="137.59" r="1.6" fill="#2563eb" opacity="0.38" />
<circle cx="887.7" cy="136.91" r="1.6" fill="#2563eb" opacity="0.38" />
<circle cx="893.14" cy="136.74" r="1.6" fill="#2563eb" opacity="0.38" />
<circle cx="896.92" cy="135.1" r="1.6" fill="#2563eb" opacity="0.38" />
<circle cx="916.9" cy="132.31" r="1.6" fill="#2563eb" opacity="0.38" />
<circle cx="917.02" cy="132.22" r="1.6" fill="#2563eb" opacity="0.38" />
<circle cx="917.31" cy="123.5" r="1.6" fill="#2563eb" opacity="0.38" />
<circle cx="917.34" cy="123.49" r="1.6" fill="#2563eb" opacity="0.38" />
<circle cx="917.44" cy="123.49" r="1.6" fill="#2563eb" opacity="0.38" />
<circle cx="917.63" cy="121.16" r="1.6" fill="#2563eb" opacity="0.38" />
<circle cx="919.95" cy="118.44" r="1.6" fill="#2563eb" opacity="0.38" />
<circle cx="926.58" cy="118.29" r="1.6" fill="#2563eb" opacity="0.38" />
<circle cx="926.89" cy="116.67" r="1.6" fill="#2563eb" opacity="0.38" />
<circle cx="927.41" cy="116.65" r="1.6" fill="#2563eb" opacity="0.38" />
<circle cx="927.56" cy="116.64" r="1.6" fill="#2563eb" opacity="0.38" />
<circle cx="927.58" cy="116.1" r="1.6" fill="#2563eb" opacity="0.38" />
<circle cx="927.87" cy="115.47" r="1.6" fill="#2563eb" opacity="0.38" />
<circle cx="928.02" cy="115.26" r="1.6" fill="#2563eb" opacity="0.38" />
<circle cx="928.04" cy="115.25" r="1.6" fill="#2563eb" opacity="0.38" />
<circle cx="928.27" cy="114.9" r="1.6" fill="#2563eb" opacity="0.38" />
<circle cx="928.37" cy="114.37" r="1.6" fill="#2563eb" opacity="0.38" />
<circle cx="928.56" cy="114.32" r="1.6" fill="#2563eb" opacity="0.38" />
<circle cx="928.58" cy="114.14" r="1.6" fill="#2563eb" opacity="0.38" />
<circle cx="929.98" cy="113.81" r="1.6" fill="#2563eb" opacity="0.38" />
<circle cx="934.37" cy="112.88" r="1.6" fill="#2563eb" opacity="0.38" />
<circle cx="944.91" cy="112.39" r="1.6" fill="#2563eb" opacity="0.38" />
<circle cx="945.77" cy="109.81" r="1.6" fill="#2563eb" opacity="0.38" />
<circle cx="957.29" cy="109.8" r="1.6" fill="#2563eb" opacity="0.38" />
<circle cx="958.21" cy="109.79" r="1.6" fill="#2563eb" opacity="0.38" />
<circle cx="960.39" cy="109.69" r="1.6" fill="#2563eb" opacity="0.38" />
<circle cx="960.83" cy="109.67" r="1.6" fill="#2563eb" opacity="0.38" />
<circle cx="962.13" cy="109.6" r="1.6" fill="#2563eb" opacity="0.38" />
<circle cx="962.36" cy="108.72" r="1.6" fill="#2563eb" opacity="0.38" />
<circle cx="962.71" cy="108.43" r="1.6" fill="#2563eb" opacity="0.38" />
<circle cx="964.6" cy="106.53" r="1.6" fill="#2563eb" opacity="0.38" />
<circle cx="967.83" cy="105.97" r="1.6" fill="#2563eb" opacity="0.38" />
<circle cx="967.98" cy="91.24" r="1.6" fill="#2563eb" opacity="0.38" />
<circle cx="968.31" cy="82.21" r="1.6" fill="#2563eb" opacity="0.38" />
<circle cx="968.38" cy="82.04" r="1.6" fill="#2563eb" opacity="0.38" />
<circle cx="1003.21" cy="76.22" r="1.6" fill="#2563eb" opacity="0.38" />
<circle cx="1031.01" cy="76.2" r="1.6" fill="#2563eb" opacity="0.38" />
<circle cx="1032.51" cy="74.3" r="1.6" fill="#2563eb" opacity="0.38" />
<circle cx="1033.29" cy="74.17" r="1.6" fill="#2563eb" opacity="0.38" />
<circle cx="1033.46" cy="72.39" r="1.6" fill="#2563eb" opacity="0.38" />
<circle cx="1037.95" cy="72.38" r="1.6" fill="#2563eb" opacity="0.38" />
<circle cx="1038.14" cy="71.79" r="1.6" fill="#2563eb" opacity="0.38" />
<circle cx="1039.98" cy="70.41" r="1.6" fill="#2563eb" opacity="0.38" />
<circle cx="1040.17" cy="69.37" r="1.6" fill="#2563eb" opacity="0.38" />
<circle cx="1040.29" cy="69.36" r="1.6" fill="#2563eb" opacity="0.38" />
<circle cx="1040.92" cy="67.18" r="1.6" fill="#2563eb" opacity="0.38" />
<circle cx="1045.71" cy="67.09" r="1.6" fill="#2563eb" opacity="0.38" />
<circle cx="1050.58" cy="61.4" r="1.6" fill="#2563eb" opacity="0.38" />
<circle cx="1050.73" cy="61.06" r="1.6" fill="#2563eb" opacity="0.38" />
<circle cx="1051.42" cy="61.02" r="1.6" fill="#2563eb" opacity="0.38" />
<circle cx="1051.71" cy="60.88" r="1.6" fill="#2563eb" opacity="0.38" />
<circle cx="1051.8" cy="58.97" r="1.6" fill="#2563eb" opacity="0.38" />
<circle cx="1053.49" cy="58.87" r="1.6" fill="#2563eb" opacity="0.38" />
<circle cx="1055.02" cy="58.67" r="1.6" fill="#2563eb" opacity="0.38" />
<circle cx="1055.33" cy="58.2" r="1.6" fill="#2563eb" opacity="0.38" />
<circle cx="1061.32" cy="57.6" r="1.6" fill="#2563eb" opacity="0.38" />
<circle cx="1063.06" cy="55.11" r="1.6" fill="#2563eb" opacity="0.38" />
<circle cx="1063.23" cy="54.82" r="1.6" fill="#2563eb" opacity="0.38" />
<circle cx="1065.74" cy="54.51" r="1.6" fill="#2563eb" opacity="0.38" />
<circle cx="1066.09" cy="54.46" r="1.6" fill="#2563eb" opacity="0.38" />
<circle cx="1067.87" cy="54.09" r="1.6" fill="#2563eb" opacity="0.38" />
<circle cx="1068.02" cy="54.06" r="1.6" fill="#2563eb" opacity="0.38" />
<circle cx="1068.25" cy="53.91" r="1.6" fill="#2563eb" opacity="0.38" />
<circle cx="1069.31" cy="53.25" r="1.6" fill="#2563eb" opacity="0.38" />
<circle cx="1071.34" cy="53.21" r="1.6" fill="#2563eb" opacity="0.38" />
<circle cx="1071.44" cy="52.67" r="1.6" fill="#2563eb" opacity="0.38" />
<circle cx="1072.95" cy="52.28" r="1.6" fill="#2563eb" opacity="0.38" />
<circle cx="1073.14" cy="50.99" r="1.6" fill="#2563eb" opacity="0.38" />
<circle cx="1073.79" cy="50.97" r="1.6" fill="#2563eb" opacity="0.38" />
<circle cx="1075.31" cy="50.15" r="1.6" fill="#2563eb" opacity="0.38" />
<circle cx="1075.67" cy="49.21" r="1.6" fill="#2563eb" opacity="0.38" />
<circle cx="1075.75" cy="48.66" r="1.6" fill="#2563eb" opacity="0.38" />
<circle cx="1075.92" cy="48.51" r="1.6" fill="#2563eb" opacity="0.38" />
<circle cx="1088.59" cy="48.4" r="1.6" fill="#2563eb" opacity="0.38" />
<circle cx="1094.81" cy="48.21" r="1.6" fill="#2563eb" opacity="0.38" />
<circle cx="1144.71" cy="48.14" r="1.6" fill="#2563eb" opacity="0.38" />
<circle cx="1144.88" cy="47.64" r="1.6" fill="#2563eb" opacity="0.38" />
<circle cx="1153.2" cy="47.29" r="1.6" fill="#2563eb" opacity="0.38" />
<circle cx="1153.33" cy="45.92" r="1.6" fill="#2563eb" opacity="0.38" />
<circle cx="1153.56" cy="45.64" r="1.6" fill="#2563eb" opacity="0.38" />
<circle cx="1153.85" cy="43.45" r="1.6" fill="#2563eb" opacity="0.38" />
<circle cx="1154.93" cy="42.15" r="1.6" fill="#2563eb" opacity="0.38" />
<circle cx="1157.09" cy="42.04" r="1.6" fill="#2563eb" opacity="0.38" />
<circle cx="1157.27" cy="42.03" r="1.6" fill="#2563eb" opacity="0.38" />
<circle cx="1157.57" cy="42.01" r="1.6" fill="#2563eb" opacity="0.38" />
<circle cx="1158.74" cy="41.96" r="1.6" fill="#2563eb" opacity="0.38" />
<circle cx="1159.01" cy="41.94" r="1.6" fill="#2563eb" opacity="0.38" />
<circle cx="1159.43" cy="41.06" r="1.6" fill="#2563eb" opacity="0.38" />
<circle cx="1159.71" cy="40.01" r="1.6" fill="#2563eb" opacity="0.38" />
</svg>