<svg xmlns="http://www.w3.org/2000/svg" width="1200" height="760" viewBox="0 0 1200 760">
<rect width="100%" height="100%" fill="white" />
<rect x="90" y="40" width="1070" height="650" fill="#f8fafc" stroke="#cbd5e1" />
<text x="600" y="24" text-anchor="middle" font-family="sans-serif" font-size="16">Global DP monotonic word alignment: clip time x source time</text>
<text x="600" y="738" text-anchor="middle" font-family="sans-serif" font-size="13">clip time</text>
<text x="22" y="380" text-anchor="middle" font-family="sans-serif" font-size="13" transform="rotate(-90 22 380)">source time</text>
<text x="90" y="718" font-family="monospace" font-size="12">0:02.555</text>
<text x="1160" y="718" text-anchor="end" font-family="monospace" font-size="12">2:01.147</text>
<text x="82" y="690" text-anchor="end" font-family="monospace" font-size="12">6:28.791</text>
<text x="82" y="44" text-anchor="end" font-family="monospace" font-size="12">40:40.868</text>
<circle cx="90" cy="690" r="1.6" fill="#2563eb" opacity="0.38" />
<circle cx="94.15" cy="685.04" r="1.6" fill="#2563eb" opacity="0.38" />
<circle cx="94.51" cy="685.03" r="1.6" fill="#2563eb" opacity="0.38" />
<circle cx="94.69" cy="684.85" r="1.6" fill="#2563eb" opacity="0.38" />
<circle cx="96.14" cy="683.71" r="1.6" fill="#2563eb" opacity="0.38" />
<circle cx="97.05" cy="680.8" r="1.6" fill="#2563eb" opacity="0.38" />
<circle cx="97.41" cy="678.76" r="1.6" fill="#2563eb" opacity="0.38" />
<circle cx="98.13" cy="677.79" r="1.6" fill="#2563eb" opacity="0.38" />
<circle cx="100.84" cy="664.76" r="1.6" fill="#2563eb" opacity="0.38" />
<circle cx="101.56" cy="664.72" r="1.6" fill="#2563eb" opacity="0.38" />
<circle cx="102.1" cy="664.71" r="1.6" fill="#2563eb" opacity="0.38" />
<circle cx="102.82" cy="648.52" r="1.6" fill="#2563eb" opacity="0.38" />
<circle cx="103.72" cy="633.79" r="1.6" fill="#2563eb" opacity="0.38" />
<circle cx="104.08" cy="632.87" r="1.6" fill="#2563eb" opacity="0.38" />
<circle cx="106.61" cy="632.61" r="1.6" fill="#2563eb" opacity="0.38" />
<circle cx="109.14" cy="628.71" r="1.6" fill="#2563eb" opacity="0.38" />
<circle cx="110.4" cy="628.05" r="1.6" fill="#2563eb" opacity="0.38" />
<circle cx="113.3" cy="628.03" r="1.6" fill="#2563eb" opacity="0.38" />
<circle cx="116.91" cy="628.02" r="1.6" fill="#2563eb" opacity="0.38" />
<circle cx="120.15" cy="620.34" r="1.6" fill="#2563eb" opacity="0.38" />
<circle cx="120.51" cy="620.17" r="1.6" fill="#2563eb" opacity="0.38" />
<circle cx="120.69" cy="619.97" r="1.6" fill="#2563eb" opacity="0.38" />
<circle cx="123.58" cy="609.16" r="1.6" fill="#2563eb" opacity="0.38" />
<circle cx="124.12" cy="609.15" r="1.6" fill="#2563eb" opacity="0.38" />
<circle cx="124.3" cy="609.14" r="1.6" fill="#2563eb" opacity="0.38" />
<circle cx="128.64" cy="602.14" r="1.6" fill="#2563eb" opacity="0.38" />
<circle cx="138.57" cy="595.91" r="1.6" fill="#2563eb" opacity="0.38" />
<circle cx="139.11" cy="595.91" r="1.6" fill="#2563eb" opacity="0.38" />
<circle cx="139.29" cy="588.69" r="1.6" fill="#2563eb" opacity="0.38" />
<circle cx="141.1" cy="581.42" r="1.6" fill="#2563eb" opacity="0.38" />
<circle cx="142.19" cy="574.83" r="1.6" fill="#2563eb" opacity="0.38" />
<circle cx="142.73" cy="572.55" r="1.6" fill="#2563eb" opacity="0.38" />
<circle cx="143.63" cy="572.53" r="1.6" fill="#2563eb" opacity="0.38" />
<circle cx="144.53" cy="572.49" r="1.6" fill="#2563eb" opacity="0.38" />
<circle cx="144.89" cy="568.65" r="1.6" fill="#2563eb" opacity="0.38" />
<circle cx="145.25" cy="566.71" r="1.6" fill="#2563eb" opacity="0.38" />
<circle cx="148.14" cy="566.62" r="1.6" fill="#2563eb" opacity="0.38" />
<circle cx="149.22" cy="566.59" r="1.6" fill="#2563eb" opacity="0.38" />
<circle cx="150.31" cy="564.21" r="1.6" fill="#2563eb" opacity="0.38" />
<circle cx="151.03" cy="564" r="1.6" fill="#2563eb" opacity="0.38" />
<circle cx="151.39" cy="563.98" r="1.6" fill="#2563eb" opacity="0.38" />
<circle cx="152.11" cy="563.97" r="1.6" fill="#2563eb" opacity="0.38" />
<circle cx="152.83" cy="563.95" r="1.6" fill="#2563eb" opacity="0.38" />
<circle cx="153.74" cy="563.6" r="1.6" fill="#2563eb" opacity="0.38" />
<circle cx="161.5" cy="556.28" r="1.6" fill="#2563eb" opacity="0.38" />
<circle cx="166.74" cy="552.85" r="1.6" fill="#2563eb" opacity="0.38" />
<circle cx="170.35" cy="361.71" r="1.6" fill="#2563eb" opacity="0.38" />
<circle cx="170.54" cy="360.57" r="1.6" fill="#2563eb" opacity="0.38" />
<circle cx="170.72" cy="360.46" r="1.6" fill="#2563eb" opacity="0.38" />
<circle cx="171.8" cy="289.43" r="1.6" fill="#2563eb" opacity="0.38" />
<circle cx="172.88" cy="260.86" r="1.6" fill="#2563eb" opacity="0.38" />
<circle cx="173.78" cy="249.34" r="1.6" fill="#2563eb" opacity="0.38" />
<circle cx="174.14" cy="220.93" r="1.6" fill="#2563eb" opacity="0.38" />
<circle cx="181.18" cy="195.33" r="1.6" fill="#2563eb" opacity="0.38" />
<circle cx="182.08" cy="194.81" r="1.6" fill="#2563eb" opacity="0.38" />
<circle cx="182.26" cy="193.58" r="1.6" fill="#2563eb" opacity="0.38" />
<circle cx="182.63" cy="157.23" r="1.6" fill="#2563eb" opacity="0.38" />
<circle cx="183.53" cy="150.63" r="1.6" fill="#2563eb" opacity="0.38" />
<circle cx="183.89" cy="150.62" r="1.6" fill="#2563eb" opacity="0.38" />
<circle cx="184.25" cy="150.56" r="1.6" fill="#2563eb" opacity="0.38" />
<circle cx="186.06" cy="150.49" r="1.6" fill="#2563eb" opacity="0.38" />
<circle cx="186.97" cy="121.98" r="1.6" fill="#2563eb" opacity="0.38" />
<circle cx="187.69" cy="120.31" r="1.6" fill="#2563eb" opacity="0.38" />
<circle cx="188.59" cy="120.11" r="1.6" fill="#2563eb" opacity="0.38" />
<circle cx="188.77" cy="118.06" r="1.6" fill="#2563eb" opacity="0.38" />
<circle cx="189.49" cy="118.03" r="1.6" fill="#2563eb" opacity="0.38" />
<circle cx="189.67" cy="118.03" r="1.6" fill="#2563eb" opacity="0.38" />
<circle cx="202.49" cy="114.32" r="1.6" fill="#2563eb" opacity="0.38" />
<circle cx="203.03" cy="114.3" r="1.6" fill="#2563eb" opacity="0.38" />
<circle cx="203.21" cy="114.29" r="1.6" fill="#2563eb" opacity="0.38" />
<circle cx="205.02" cy="114.23" r="1.6" fill="#2563eb" opacity="0.38" />
<circle cx="210.43" cy="113.71" r="1.6" fill="#2563eb" opacity="0.38" />
<circle cx="212.42" cy="113.64" r="1.6" fill="#2563eb" opacity="0.38" />
<circle cx="213.87" cy="113.59" r="1.6" fill="#2563eb" opacity="0.38" />
<circle cx="214.77" cy="113.55" r="1.6" fill="#2563eb" opacity="0.38" />
<circle cx="215.86" cy="113.52" r="1.6" fill="#2563eb" opacity="0.38" />
<circle cx="216.94" cy="113.47" r="1.6" fill="#2563eb" opacity="0.38" />
<circle cx="217.48" cy="113.46" r="1.6" fill="#2563eb" opacity="0.38" />
<circle cx="219.83" cy="113.38" r="1.6" fill="#2563eb" opacity="0.38" />
<circle cx="223.61" cy="113.24" r="1.6" fill="#2563eb" opacity="0.38" />
<circle cx="225.24" cy="113.19" r="1.6" fill="#2563eb" opacity="0.38" />
<circle cx="228.68" cy="113.14" r="1.6" fill="#2563eb" opacity="0.38" />
<circle cx="233.73" cy="113.07" r="1.6" fill="#2563eb" opacity="0.38" />
<circle cx="233.91" cy="112.89" r="1.6" fill="#2563eb" opacity="0.38" />
<circle cx="235.17" cy="112.84" r="1.6" fill="#2563eb" opacity="0.38" />
<circle cx="242.57" cy="112.58" r="1.6" fill="#2563eb" opacity="0.38" />
<circle cx="242.93" cy="112.57" r="1.6" fill="#2563eb" opacity="0.38" />
<circle cx="243.3" cy="112.55" r="1.6" fill="#2563eb" opacity="0.38" />
<circle cx="244.56" cy="112.53" r="1.6" fill="#2563eb" opacity="0.38" />
<circle cx="245.11" cy="112.51" r="1.6" fill="#2563eb" opacity="0.38" />
<circle cx="245.65" cy="112.47" r="1.6" fill="#2563eb" opacity="0.38" />
<circle cx="247.45" cy="112.41" r="1.6" fill="#2563eb" opacity="0.38" />
<circle cx="247.99" cy="112.39" r="1.6" fill="#2563eb" opacity="0.38" />
<circle cx="248.53" cy="112.37" r="1.6" fill="#2563eb" opacity="0.38" />
<circle cx="249.62" cy="112.33" r="1.6" fill="#2563eb" opacity="0.38" />
<circle cx="250.16" cy="112.31" r="1.6" fill="#2563eb" opacity="0.38" />
<circle cx="250.7" cy="112.29" r="1.6" fill="#2563eb" opacity="0.38" />
<circle cx="251.24" cy="112.27" r="1.6" fill="#2563eb" opacity="0.38" />
<circle cx="251.78" cy="112.27" r="1.6" fill="#2563eb" opacity="0.38" />
<circle cx="251.96" cy="112.26" r="1.6" fill="#2563eb" opacity="0.38" />
<circle cx="253.59" cy="112.19" r="1.6" fill="#2563eb" opacity="0.38" />
<circle cx="260.45" cy="111.96" r="1.6" fill="#2563eb" opacity="0.38" />
<circle cx="261.54" cy="111.95" r="1.6" fill="#2563eb" opacity="0.38" />
<circle cx="261.72" cy="111.91" r="1.6" fill="#2563eb" opacity="0.38" />
<circle cx="262.08" cy="111.89" r="1.6" fill="#2563eb" opacity="0.38" />
<circle cx="262.26" cy="111.86" r="1.6" fill="#2563eb" opacity="0.38" />
<circle cx="263.52" cy="111.84" r="1.6" fill="#2563eb" opacity="0.38" />
<circle cx="264.06" cy="111.82" r="1.6" fill="#2563eb" opacity="0.38" />
<circle cx="265.69" cy="111.77" r="1.6" fill="#2563eb" opacity="0.38" />
<circle cx="266.59" cy="111.73" r="1.6" fill="#2563eb" opacity="0.38" />
<circle cx="267.85" cy="111.69" r="1.6" fill="#2563eb" opacity="0.38" />
<circle cx="268.93" cy="111.65" r="1.6" fill="#2563eb" opacity="0.38" />
<circle cx="278.33" cy="110.99" r="1.6" fill="#2563eb" opacity="0.38" />
<circle cx="279.95" cy="110.92" r="1.6" fill="#2563eb" opacity="0.38" />
<circle cx="280.85" cy="110.9" r="1.6" fill="#2563eb" opacity="0.38" />
<circle cx="281.39" cy="110.88" r="1.6" fill="#2563eb" opacity="0.38" />
<circle cx="281.58" cy="110.87" r="1.6" fill="#2563eb" opacity="0.38" />
<circle cx="282.84" cy="110.83" r="1.6" fill="#2563eb" opacity="0.38" />
<circle cx="284.64" cy="110.76" r="1.6" fill="#2563eb" opacity="0.38" />
<circle cx="285.18" cy="110.74" r="1.6" fill="#2563eb" opacity="0.38" />
<circle cx="286.27" cy="110.71" r="1.6" fill="#2563eb" opacity="0.38" />
<circle cx="287.18" cy="110.68" r="1.6" fill="#2563eb" opacity="0.38" />
<circle cx="288.44" cy="110.63" r="1.6" fill="#2563eb" opacity="0.38" />
<circle cx="290.43" cy="110.55" r="1.6" fill="#2563eb" opacity="0.38" />
<circle cx="292.23" cy="110.5" r="1.6" fill="#2563eb" opacity="0.38" />
<circle cx="293.13" cy="110.46" r="1.6" fill="#2563eb" opacity="0.38" />
<circle cx="295.66" cy="110.37" r="1.6" fill="#2563eb" opacity="0.38" />
<circle cx="297.1" cy="110.33" r="1.6" fill="#2563eb" opacity="0.38" />
<circle cx="299.09" cy="110.26" r="1.6" fill="#2563eb" opacity="0.38" />
<circle cx="303.79" cy="110.09" r="1.6" fill="#2563eb" opacity="0.38" />
<circle cx="304.51" cy="110.06" r="1.6" fill="#2563eb" opacity="0.38" />
<circle cx="305.05" cy="110.04" r="1.6" fill="#2563eb" opacity="0.38" />
<circle cx="306.5" cy="109.99" r="1.6" fill="#2563eb" opacity="0.38" />
<circle cx="307.58" cy="109.96" r="1.6" fill="#2563eb" opacity="0.38" />
<circle cx="307.94" cy="109.95" r="1.6" fill="#2563eb" opacity="0.38" />
<circle cx="308.48" cy="109.93" r="1.6" fill="#2563eb" opacity="0.38" />
<circle cx="309.2" cy="109.9" r="1.6" fill="#2563eb" opacity="0.38" />
<circle cx="309.38" cy="109.9" r="1.6" fill="#2563eb" opacity="0.38" />
<circle cx="309.92" cy="109.87" r="1.6" fill="#2563eb" opacity="0.38" />
<circle cx="311.19" cy="109.83" r="1.6" fill="#2563eb" opacity="0.38" />
<circle cx="312.09" cy="109.81" r="1.6" fill="#2563eb" opacity="0.38" />
<circle cx="312.81" cy="109.77" r="1.6" fill="#2563eb" opacity="0.38" />
<circle cx="313.53" cy="109.74" r="1.6" fill="#2563eb" opacity="0.38" />
<circle cx="314.26" cy="109.72" r="1.6" fill="#2563eb" opacity="0.38" />
<circle cx="314.62" cy="109.71" r="1.6" fill="#2563eb" opacity="0.38" />
<circle cx="315.16" cy="109.69" r="1.6" fill="#2563eb" opacity="0.38" />
<circle cx="316.06" cy="109.66" r="1.6" fill="#2563eb" opacity="0.38" />
<circle cx="316.79" cy="109.64" r="1.6" fill="#2563eb" opacity="0.38" />
<circle cx="326.17" cy="109.31" r="1.6" fill="#2563eb" opacity="0.38" />
<circle cx="326.53" cy="109.29" r="1.6" fill="#2563eb" opacity="0.38" />
<circle cx="327.08" cy="109.27" r="1.6" fill="#2563eb" opacity="0.38" />
<circle cx="328.7" cy="109.22" r="1.6" fill="#2563eb" opacity="0.38" />
<circle cx="329.78" cy="109.18" r="1.6" fill="#2563eb" opacity="0.38" />
<circle cx="330.87" cy="109.14" r="1.6" fill="#2563eb" opacity="0.38" />
<circle cx="331.6" cy="109.12" r="1.6" fill="#2563eb" opacity="0.38" />
<circle cx="332.32" cy="109.09" r="1.6" fill="#2563eb" opacity="0.38" />
<circle cx="332.5" cy="109.06" r="1.6" fill="#2563eb" opacity="0.38" />
<circle cx="333.4" cy="109.04" r="1.6" fill="#2563eb" opacity="0.38" />
<circle cx="334.12" cy="109.03" r="1.6" fill="#2563eb" opacity="0.38" />
<circle cx="334.84" cy="108.99" r="1.6" fill="#2563eb" opacity="0.38" />
<circle cx="346.67" cy="108.58" r="1.6" fill="#2563eb" opacity="0.38" />
<circle cx="359.12" cy="108.54" r="1.6" fill="#2563eb" opacity="0.38" />
<circle cx="360.76" cy="104.31" r="1.6" fill="#2563eb" opacity="0.38" />
<circle cx="361.66" cy="104.28" r="1.6" fill="#2563eb" opacity="0.38" />
<circle cx="362.38" cy="104.26" r="1.6" fill="#2563eb" opacity="0.38" />
<circle cx="365.27" cy="104.16" r="1.6" fill="#2563eb" opacity="0.38" />
<circle cx="366.53" cy="104.13" r="1.6" fill="#2563eb" opacity="0.38" />
<circle cx="366.89" cy="104.11" r="1.6" fill="#2563eb" opacity="0.38" />
<circle cx="367.07" cy="104.09" r="1.6" fill="#2563eb" opacity="0.38" />
<circle cx="367.61" cy="104.07" r="1.6" fill="#2563eb" opacity="0.38" />
<circle cx="367.98" cy="104.06" r="1.6" fill="#2563eb" opacity="0.38" />
<circle cx="368.52" cy="104.04" r="1.6" fill="#2563eb" opacity="0.38" />
<circle cx="368.7" cy="104.03" r="1.6" fill="#2563eb" opacity="0.38" />
<circle cx="369.06" cy="104" r="1.6" fill="#2563eb" opacity="0.38" />
<circle cx="369.24" cy="103.16" r="1.6" fill="#2563eb" opacity="0.38" />
<circle cx="369.6" cy="103.15" r="1.6" fill="#2563eb" opacity="0.38" />
<circle cx="371.58" cy="103.03" r="1.6" fill="#2563eb" opacity="0.38" />
<circle cx="372.31" cy="102.94" r="1.6" fill="#2563eb" opacity="0.38" />
<circle cx="399.02" cy="102.68" r="1.6" fill="#2563eb" opacity="0.38" />
<circle cx="399.92" cy="102.63" r="1.6" fill="#2563eb" opacity="0.38" />
<circle cx="402.09" cy="102.56" r="1.6" fill="#2563eb" opacity="0.38" />
<circle cx="403.53" cy="102.51" r="1.6" fill="#2563eb" opacity="0.38" />
<circle cx="405.16" cy="102.46" r="1.6" fill="#2563eb" opacity="0.38" />
<circle cx="406.24" cy="102.42" r="1.6" fill="#2563eb" opacity="0.38" />
<circle cx="406.96" cy="102.39" r="1.6" fill="#2563eb" opacity="0.38" />
<circle cx="409.67" cy="102.35" r="1.6" fill="#2563eb" opacity="0.38" />
<circle cx="410.21" cy="102.28" r="1.6" fill="#2563eb" opacity="0.38" />
<circle cx="411.11" cy="102.25" r="1.6" fill="#2563eb" opacity="0.38" />
<circle cx="411.83" cy="102.23" r="1.6" fill="#2563eb" opacity="0.38" />
<circle cx="414.91" cy="102.18" r="1.6" fill="#2563eb" opacity="0.38" />
<circle cx="415.09" cy="102.12" r="1.6" fill="#2563eb" opacity="0.38" />
<circle cx="418.52" cy="102.08" r="1.6" fill="#2563eb" opacity="0.38" />
<circle cx="418.7" cy="102.03" r="1.6" fill="#2563eb" opacity="0.38" />
<circle cx="420.32" cy="101.92" r="1.6" fill="#2563eb" opacity="0.38" />
<circle cx="422.67" cy="101.84" r="1.6" fill="#2563eb" opacity="0.38" />
<circle cx="430.61" cy="101.56" r="1.6" fill="#2563eb" opacity="0.38" />
<circle cx="430.97" cy="101.55" r="1.6" fill="#2563eb" opacity="0.38" />
<circle cx="431.15" cy="101.54" r="1.6" fill="#2563eb" opacity="0.38" />
<circle cx="432.41" cy="101.53" r="1.6" fill="#2563eb" opacity="0.38" />
<circle cx="432.59" cy="101.52" r="1.6" fill="#2563eb" opacity="0.38" />
<circle cx="435.12" cy="101.51" r="1.6" fill="#2563eb" opacity="0.38" />
<circle cx="436.2" cy="101.51" r="1.6" fill="#2563eb" opacity="0.38" />
<circle cx="436.38" cy="101.5" r="1.6" fill="#2563eb" opacity="0.38" />
<circle cx="436.56" cy="101.49" r="1.6" fill="#2563eb" opacity="0.38" />
<circle cx="436.74" cy="101.49" r="1.6" fill="#2563eb" opacity="0.38" />
<circle cx="437.29" cy="101.48" r="1.6" fill="#2563eb" opacity="0.38" />
<circle cx="438.73" cy="101.47" r="1.6" fill="#2563eb" opacity="0.38" />
<circle cx="440.18" cy="101.46" r="1.6" fill="#2563eb" opacity="0.38" />
<circle cx="440.36" cy="101.46" r="1.6" fill="#2563eb" opacity="0.38" />
<circle cx="440.54" cy="101.45" r="1.6" fill="#2563eb" opacity="0.38" />
<circle cx="440.72" cy="101.44" r="1.6" fill="#2563eb" opacity="0.38" />
<circle cx="450.11" cy="101.44" r="1.6" fill="#2563eb" opacity="0.38" />
<circle cx="483.5" cy="101.43" r="1.6" fill="#2563eb" opacity="0.38" />
<circle cx="489.27" cy="101.33" r="1.6" fill="#2563eb" opacity="0.38" />
<circle cx="489.45" cy="99.35" r="1.6" fill="#2563eb" opacity="0.38" />
<circle cx="492.34" cy="99.35" r="1.6" fill="#2563eb" opacity="0.38" />
<circle cx="492.7" cy="99.3" r="1.6" fill="#2563eb" opacity="0.38" />
<circle cx="492.89" cy="99.29" r="1.6" fill="#2563eb" opacity="0.38" />
<circle cx="494.34" cy="99.28" r="1.6" fill="#2563eb" opacity="0.38" />
<circle cx="502.64" cy="99.27" r="1.6" fill="#2563eb" opacity="0.38" />
<circle cx="503.9" cy="99.24" r="1.6" fill="#2563eb" opacity="0.38" />
<circle cx="504.08" cy="99.24" r="1.6" fill="#2563eb" opacity="0.38" />
<circle cx="504.26" cy="85.48" r="1.6" fill="#2563eb" opacity="0.38" />
<circle cx="505.88" cy="85.41" r="1.6" fill="#2563eb" opacity="0.38" />
<circle cx="506.79" cy="85.38" r="1.6" fill="#2563eb" opacity="0.38" />
<circle cx="507.15" cy="85.37" r="1.6" fill="#2563eb" opacity="0.38" />
<circle cx="507.69" cy="85.35" r="1.6" fill="#2563eb" opacity="0.38" />
<circle cx="508.41" cy="85.33" r="1.6" fill="#2563eb" opacity="0.38" />
<circle cx="508.59" cy="85.15" r="1.6" fill="#2563eb" opacity="0.38" />
<circle cx="512.56" cy="85.12" r="1.6" fill="#2563eb" opacity="0.38" />
<circle cx="513.46" cy="85.08" r="1.6" fill="#2563eb" opacity="0.38" />
<circle cx="514.37" cy="85.04" r="1.6" fill="#2563eb" opacity="0.38" />
<circle cx="515.45" cy="85.01" r="1.6" fill="#2563eb" opacity="0.38" />
<circle cx="516.35" cy="84.98" r="1.6" fill="#2563eb" opacity="0.38" />
<circle cx="517.43" cy="84.94" r="1.6" fill="#2563eb" opacity="0.38" />
<circle cx="518.34" cy="84.91" r="1.6" fill="#2563eb" opacity="0.38" />
<circle cx="519.43" cy="84.88" r="1.6" fill="#2563eb" opacity="0.38" />
<circle cx="519.61" cy="84.84" r="1.6" fill="#2563eb" opacity="0.38" />
<circle cx="532.42" cy="80.13" r="1.6" fill="#2563eb" opacity="0.38" />
<circle cx="534.4" cy="80.02" r="1.6" fill="#2563eb" opacity="0.38" />
<circle cx="535.67" cy="79.99" r="1.6" fill="#2563eb" opacity="0.38" />
<circle cx="536.21" cy="79.98" r="1.6" fill="#2563eb" opacity="0.38" />
<circle cx="538.92" cy="79.91" r="1.6" fill="#2563eb" opacity="0.38" />
<circle cx="541.8" cy="79.8" r="1.6" fill="#2563eb" opacity="0.38" />
<circle cx="543.43" cy="79.75" r="1.6" fill="#2563eb" opacity="0.38" />
<circle cx="545.05" cy="79.69" r="1.6" fill="#2563eb" opacity="0.38" />
<circle cx="545.95" cy="79.66" r="1.6" fill="#2563eb" opacity="0.38" />
<circle cx="546.5" cy="79.65" r="1.6" fill="#2563eb" opacity="0.38" />
<circle cx="547.23" cy="79.61" r="1.6" fill="#2563eb" opacity="0.38" />
<circle cx="547.95" cy="79.59" r="1.6" fill="#2563eb" opacity="0.38" />
<circle cx="549.03" cy="79.56" r="1.6" fill="#2563eb" opacity="0.38" />
<circle cx="550.29" cy="79.51" r="1.6" fill="#2563eb" opacity="0.38" />
<circle cx="551.38" cy="79.47" r="1.6" fill="#2563eb" opacity="0.38" />
<circle cx="552.46" cy="79.43" r="1.6" fill="#2563eb" opacity="0.38" />
<circle cx="553.54" cy="79.4" r="1.6" fill="#2563eb" opacity="0.38" />
<circle cx="554.08" cy="79.38" r="1.6" fill="#2563eb" opacity="0.38" />
<circle cx="554.62" cy="79.35" r="1.6" fill="#2563eb" opacity="0.38" />
<circle cx="555.71" cy="79.32" r="1.6" fill="#2563eb" opacity="0.38" />
<circle cx="556.43" cy="79.3" r="1.6" fill="#2563eb" opacity="0.38" />
<circle cx="571.52" cy="74.27" r="1.6" fill="#2563eb" opacity="0.38" />
<circle cx="571.88" cy="74.26" r="1.6" fill="#2563eb" opacity="0.38" />
<circle cx="572.25" cy="74.23" r="1.6" fill="#2563eb" opacity="0.38" />
<circle cx="573.33" cy="74.19" r="1.6" fill="#2563eb" opacity="0.38" />
<circle cx="574.05" cy="74.17" r="1.6" fill="#2563eb" opacity="0.38" />
<circle cx="578.21" cy="74.02" r="1.6" fill="#2563eb" opacity="0.38" />
<circle cx="580.92" cy="73.96" r="1.6" fill="#2563eb" opacity="0.38" />
<circle cx="581.64" cy="73.9" r="1.6" fill="#2563eb" opacity="0.38" />
<circle cx="582.36" cy="73.87" r="1.6" fill="#2563eb" opacity="0.38" />
<circle cx="584.34" cy="73.8" r="1.6" fill="#2563eb" opacity="0.38" />
<circle cx="585.61" cy="73.76" r="1.6" fill="#2563eb" opacity="0.38" />
<circle cx="586.51" cy="73.73" r="1.6" fill="#2563eb" opacity="0.38" />
<circle cx="589.59" cy="73.62" r="1.6" fill="#2563eb" opacity="0.38" />
<circle cx="592.83" cy="73.51" r="1.6" fill="#2563eb" opacity="0.38" />
<circle cx="593.74" cy="73.47" r="1.6" fill="#2563eb" opacity="0.38" />
<circle cx="595.18" cy="73.42" r="1.6" fill="#2563eb" opacity="0.38" />
<circle cx="600.96" cy="73.21" r="1.6" fill="#2563eb" opacity="0.38" />
<circle cx="603.31" cy="73.13" r="1.6" fill="#2563eb" opacity="0.38" />
<circle cx="604.03" cy="73.11" r="1.6" fill="#2563eb" opacity="0.38" />
<circle cx="605.11" cy="73.07" r="1.6" fill="#2563eb" opacity="0.38" />
<circle cx="607.47" cy="72.99" r="1.6" fill="#2563eb" opacity="0.38" />
<circle cx="609.45" cy="72.92" r="1.6" fill="#2563eb" opacity="0.38" />
<circle cx="611.26" cy="72.85" r="1.6" fill="#2563eb" opacity="0.38" />
<circle cx="613.06" cy="72.79" r="1.6" fill="#2563eb" opacity="0.38" />
<circle cx="614.15" cy="72.76" r="1.6" fill="#2563eb" opacity="0.38" />
<circle cx="616.13" cy="72.68" r="1.6" fill="#2563eb" opacity="0.38" />
<circle cx="616.49" cy="72.68" r="1.6" fill="#2563eb" opacity="0.38" />
<circle cx="617.58" cy="72.64" r="1.6" fill="#2563eb" opacity="0.38" />
<circle cx="618.31" cy="72.61" r="1.6" fill="#2563eb" opacity="0.38" />
<circle cx="619.21" cy="72.58" r="1.6" fill="#2563eb" opacity="0.38" />
<circle cx="619.93" cy="72.55" r="1.6" fill="#2563eb" opacity="0.38" />
<circle cx="634.19" cy="72.06" r="1.6" fill="#2563eb" opacity="0.38" />
<circle cx="635.28" cy="72.02" r="1.6" fill="#2563eb" opacity="0.38" />
<circle cx="638.35" cy="71.9" r="1.6" fill="#2563eb" opacity="0.38" />
<circle cx="639.26" cy="71.88" r="1.6" fill="#2563eb" opacity="0.38" />
<circle cx="641.24" cy="71.81" r="1.6" fill="#2563eb" opacity="0.38" />
<circle cx="642.32" cy="71.76" r="1.6" fill="#2563eb" opacity="0.38" />
<circle cx="642.68" cy="71.76" r="1.6" fill="#2563eb" opacity="0.38" />
<circle cx="643.23" cy="71.74" r="1.6" fill="#2563eb" opacity="0.38" />
<circle cx="643.77" cy="71.72" r="1.6" fill="#2563eb" opacity="0.38" />
<circle cx="644.13" cy="71.71" r="1.6" fill="#2563eb" opacity="0.38" />
<circle cx="644.85" cy="71.68" r="1.6" fill="#2563eb" opacity="0.38" />
<circle cx="645.39" cy="71.66" r="1.6" fill="#2563eb" opacity="0.38" />
<circle cx="646.29" cy="71.64" r="1.6" fill="#2563eb" opacity="0.38" />
<circle cx="646.47" cy="71.62" r="1.6" fill="#2563eb" opacity="0.38" />
<circle cx="646.65" cy="71.62" r="1.6" fill="#2563eb" opacity="0.38" />
<circle cx="647.01" cy="71.6" r="1.6" fill="#2563eb" opacity="0.38" />
<circle cx="647.93" cy="71.57" r="1.6" fill="#2563eb" opacity="0.38" />
<circle cx="648.11" cy="71.57" r="1.6" fill="#2563eb" opacity="0.38" />
<circle cx="650.09" cy="71.5" r="1.6" fill="#2563eb" opacity="0.38" />
<circle cx="651.35" cy="71.45" r="1.6" fill="#2563eb" opacity="0.38" />
<circle cx="652.26" cy="71.41" r="1.6" fill="#2563eb" opacity="0.38" />
<circle cx="653.16" cy="71.39" r="1.6" fill="#2563eb" opacity="0.38" />
<circle cx="654.6" cy="71.33" r="1.6" fill="#2563eb" opacity="0.38" />
<circle cx="655.32" cy="71.31" r="1.6" fill="#2563eb" opacity="0.38" />
<circle cx="656.05" cy="71.29" r="1.6" fill="#2563eb" opacity="0.38" />
<circle cx="662.37" cy="71.07" r="1.6" fill="#2563eb" opacity="0.38" />
<circle cx="664.54" cy="70.98" r="1.6" fill="#2563eb" opacity="0.38" />
<circle cx="666.34" cy="70.93" r="1.6" fill="#2563eb" opacity="0.38" />
<circle cx="667.79" cy="70.87" r="1.6" fill="#2563eb" opacity="0.38" />
<circle cx="669.06" cy="70.83" r="1.6" fill="#2563eb" opacity="0.38" />
<circle cx="669.78" cy="70.81" r="1.6" fill="#2563eb" opacity="0.38" />
<circle cx="669.96" cy="70.8" r="1.6" fill="#2563eb" opacity="0.38" />
<circle cx="670.68" cy="70.78" r="1.6" fill="#2563eb" opacity="0.38" />
<circle cx="671.58" cy="70.74" r="1.6" fill="#2563eb" opacity="0.38" />
<circle cx="680.43" cy="69.9" r="1.6" fill="#2563eb" opacity="0.38" />
<circle cx="681.34" cy="69.87" r="1.6" fill="#2563eb" opacity="0.38" />
<circle cx="682.42" cy="69.84" r="1.6" fill="#2563eb" opacity="0.38" />
<circle cx="683.86" cy="69.81" r="1.6" fill="#2563eb" opacity="0.38" />
<circle cx="684.04" cy="69.78" r="1.6" fill="#2563eb" opacity="0.38" />
<circle cx="684.58" cy="69.75" r="1.6" fill="#2563eb" opacity="0.38" />
<circle cx="686.75" cy="69.68" r="1.6" fill="#2563eb" opacity="0.38" />
<circle cx="688.56" cy="69.62" r="1.6" fill="#2563eb" opacity="0.38" />
<circle cx="690.19" cy="69.56" r="1.6" fill="#2563eb" opacity="0.38" />
<circle cx="691.45" cy="69.51" r="1.6" fill="#2563eb" opacity="0.38" />
<circle cx="692.17" cy="69.49" r="1.6" fill="#2563eb" opacity="0.38" />
<circle cx="692.71" cy="69.48" r="1.6" fill="#2563eb" opacity="0.38" />
<circle cx="693.44" cy="69.45" r="1.6" fill="#2563eb" opacity="0.38" />
<circle cx="694.16" cy="69.44" r="1.6" fill="#2563eb" opacity="0.38" />
<circle cx="694.52" cy="69.41" r="1.6" fill="#2563eb" opacity="0.38" />
<circle cx="695.78" cy="69.37" r="1.6" fill="#2563eb" opacity="0.38" />
<circle cx="696.32" cy="69.34" r="1.6" fill="#2563eb" opacity="0.38" />
<circle cx="697.23" cy="69.32" r="1.6" fill="#2563eb" opacity="0.38" />
<circle cx="698.32" cy="69.28" r="1.6" fill="#2563eb" opacity="0.38" />
<circle cx="699.4" cy="69.24" r="1.6" fill="#2563eb" opacity="0.38" />
<circle cx="699.58" cy="69.23" r="1.6" fill="#2563eb" opacity="0.38" />
<circle cx="700.84" cy="69.19" r="1.6" fill="#2563eb" opacity="0.38" />
<circle cx="709.33" cy="62.51" r="1.6" fill="#2563eb" opacity="0.38" />
<circle cx="714.39" cy="62.34" r="1.6" fill="#2563eb" opacity="0.38" />
<circle cx="716.19" cy="62.27" r="1.6" fill="#2563eb" opacity="0.38" />
<circle cx="717.27" cy="62.24" r="1.6" fill="#2563eb" opacity="0.38" />
<circle cx="717.63" cy="62.22" r="1.6" fill="#2563eb" opacity="0.38" />
<circle cx="717.81" cy="62.19" r="1.6" fill="#2563eb" opacity="0.38" />
<circle cx="719.09" cy="62.17" r="1.6" fill="#2563eb" opacity="0.38" />
<circle cx="719.81" cy="62.15" r="1.6" fill="#2563eb" opacity="0.38" />
<circle cx="720.89" cy="62.11" r="1.6" fill="#2563eb" opacity="0.38" />
<circle cx="721.61" cy="62.08" r="1.6" fill="#2563eb" opacity="0.38" />
<circle cx="722.88" cy="62.04" r="1.6" fill="#2563eb" opacity="0.38" />
<circle cx="724.14" cy="61.99" r="1.6" fill="#2563eb" opacity="0.38" />
<circle cx="725.04" cy="61.96" r="1.6" fill="#2563eb" opacity="0.38" />
<circle cx="726.49" cy="61.91" r="1.6" fill="#2563eb" opacity="0.38" />
<circle cx="726.85" cy="61.9" r="1.6" fill="#2563eb" opacity="0.38" />
<circle cx="727.57" cy="61.87" r="1.6" fill="#2563eb" opacity="0.38" />
<circle cx="727.93" cy="61.86" r="1.6" fill="#2563eb" opacity="0.38" />
<circle cx="728.66" cy="61.84" r="1.6" fill="#2563eb" opacity="0.38" />
<circle cx="730.28" cy="61.78" r="1.6" fill="#2563eb" opacity="0.38" />
<circle cx="731.55" cy="61.73" r="1.6" fill="#2563eb" opacity="0.38" />
<circle cx="732.45" cy="61.7" r="1.6" fill="#2563eb" opacity="0.38" />
<circle cx="733.17" cy="61.68" r="1.6" fill="#2563eb" opacity="0.38" />
<circle cx="733.89" cy="61.65" r="1.6" fill="#2563eb" opacity="0.38" />
<circle cx="737.14" cy="61.54" r="1.6" fill="#2563eb" opacity="0.38" />
<circle cx="737.5" cy="61.52" r="1.6" fill="#2563eb" opacity="0.38" />
<circle cx="738.77" cy="61.48" r="1.6" fill="#2563eb" opacity="0.38" />
<circle cx="739.32" cy="61.46" r="1.6" fill="#2563eb" opacity="0.38" />
<circle cx="740.22" cy="61.43" r="1.6" fill="#2563eb" opacity="0.38" />
<circle cx="741.12" cy="61.4" r="1.6" fill="#2563eb" opacity="0.38" />
<circle cx="742.02" cy="61.37" r="1.6" fill="#2563eb" opacity="0.38" />
<circle cx="743.1" cy="61.33" r="1.6" fill="#2563eb" opacity="0.38" />
<circle cx="744.19" cy="61.29" r="1.6" fill="#2563eb" opacity="0.38" />
<circle cx="744.91" cy="61.26" r="1.6" fill="#2563eb" opacity="0.38" />
<circle cx="745.63" cy="61.24" r="1.6" fill="#2563eb" opacity="0.38" />
<circle cx="746.35" cy="61.22" r="1.6" fill="#2563eb" opacity="0.38" />
<circle cx="746.89" cy="61.2" r="1.6" fill="#2563eb" opacity="0.38" />
<circle cx="749.07" cy="61.12" r="1.6" fill="#2563eb" opacity="0.38" />
<circle cx="749.79" cy="61.09" r="1.6" fill="#2563eb" opacity="0.38" />
<circle cx="750.51" cy="61.07" r="1.6" fill="#2563eb" opacity="0.38" />
<circle cx="751.6" cy="61" r="1.6" fill="#2563eb" opacity="0.38" />
<circle cx="753.22" cy="60.97" r="1.6" fill="#2563eb" opacity="0.38" />
<circle cx="753.94" cy="60.95" r="1.6" fill="#2563eb" opacity="0.38" />
<circle cx="754.84" cy="60.92" r="1.6" fill="#2563eb" opacity="0.38" />
<circle cx="755.38" cy="60.9" r="1.6" fill="#2563eb" opacity="0.38" />
<circle cx="756.11" cy="60.87" r="1.6" fill="#2563eb" opacity="0.38" />
<circle cx="756.83" cy="60.87" r="1.6" fill="#2563eb" opacity="0.38" />
<circle cx="766.94" cy="60.5" r="1.6" fill="#2563eb" opacity="0.38" />
<circle cx="767.12" cy="60.49" r="1.6" fill="#2563eb" opacity="0.38" />
<circle cx="768.03" cy="60.45" r="1.6" fill="#2563eb" opacity="0.38" />
<circle cx="768.57" cy="60.43" r="1.6" fill="#2563eb" opacity="0.38" />
<circle cx="769.48" cy="60.4" r="1.6" fill="#2563eb" opacity="0.38" />
<circle cx="778.14" cy="60.1" r="1.6" fill="#2563eb" opacity="0.38" />
<circle cx="778.86" cy="60.07" r="1.6" fill="#2563eb" opacity="0.38" />
<circle cx="779.95" cy="60.03" r="1.6" fill="#2563eb" opacity="0.38" />
<circle cx="780.49" cy="60.02" r="1.6" fill="#2563eb" opacity="0.38" />
<circle cx="781.22" cy="59.98" r="1.6" fill="#2563eb" opacity="0.38" />
<circle cx="781.58" cy="59.97" r="1.6" fill="#2563eb" opacity="0.38" />
<circle cx="782.3" cy="59.95" r="1.6" fill="#2563eb" opacity="0.38" />
<circle cx="782.84" cy="59.93" r="1.6" fill="#2563eb" opacity="0.38" />
<circle cx="783.56" cy="59.91" r="1.6" fill="#2563eb" opacity="0.38" />
<circle cx="784.1" cy="59.89" r="1.6" fill="#2563eb" opacity="0.38" />
<circle cx="785.01" cy="59.86" r="1.6" fill="#2563eb" opacity="0.38" />
<circle cx="785.55" cy="59.84" r="1.6" fill="#2563eb" opacity="0.38" />
<circle cx="786.09" cy="59.81" r="1.6" fill="#2563eb" opacity="0.38" />
<circle cx="787.53" cy="59.76" r="1.6" fill="#2563eb" opacity="0.38" />
<circle cx="788.8" cy="59.72" r="1.6" fill="#2563eb" opacity="0.38" />
<circle cx="789.53" cy="59.69" r="1.6" fill="#2563eb" opacity="0.38" />
<circle cx="790.43" cy="59.67" r="1.6" fill="#2563eb" opacity="0.38" />
<circle cx="791.33" cy="59.64" r="1.6" fill="#2563eb" opacity="0.38" />
<circle cx="803.47" cy="59.2" r="1.6" fill="#2563eb" opacity="0.38" />
<circle cx="805.45" cy="59.13" r="1.6" fill="#2563eb" opacity="0.38" />
<circle cx="807.8" cy="59.05" r="1.6" fill="#2563eb" opacity="0.38" />
<circle cx="808.88" cy="59.01" r="1.6" fill="#2563eb" opacity="0.38" />
<circle cx="809.97" cy="58.98" r="1.6" fill="#2563eb" opacity="0.38" />
<circle cx="814.3" cy="58.82" r="1.6" fill="#2563eb" opacity="0.38" />
<circle cx="815.2" cy="58.79" r="1.6" fill="#2563eb" opacity="0.38" />
<circle cx="815.75" cy="58.77" r="1.6" fill="#2563eb" opacity="0.38" />
<circle cx="816.29" cy="58.75" r="1.6" fill="#2563eb" opacity="0.38" />
<circle cx="816.83" cy="58.75" r="1.6" fill="#2563eb" opacity="0.38" />
<circle cx="822.24" cy="58.54" r="1.6" fill="#2563eb" opacity="0.38" />
<circle cx="823.14" cy="58.49" r="1.6" fill="#2563eb" opacity="0.38" />
<circle cx="830.73" cy="58.46" r="1.6" fill="#2563eb" opacity="0.38" />
<circle cx="831.63" cy="58.43" r="1.6" fill="#2563eb" opacity="0.38" />
<circle cx="832.36" cy="58.39" r="1.6" fill="#2563eb" opacity="0.38" />
<circle cx="833.44" cy="58.15" r="1.6" fill="#2563eb" opacity="0.38" />
<circle cx="834.34" cy="58.12" r="1.6" fill="#2563eb" opacity="0.38" />
<circle cx="834.88" cy="58.09" r="1.6" fill="#2563eb" opacity="0.38" />
<circle cx="835.6" cy="58.04" r="1.6" fill="#2563eb" opacity="0.38" />
<circle cx="841.57" cy="57.86" r="1.6" fill="#2563eb" opacity="0.38" />
<circle cx="843.37" cy="57.8" r="1.6" fill="#2563eb" opacity="0.38" />
<circle cx="844.09" cy="57.77" r="1.6" fill="#2563eb" opacity="0.38" />
<circle cx="845.18" cy="57.74" r="1.6" fill="#2563eb" opacity="0.38" />
<circle cx="846.08" cy="57.71" r="1.6" fill="#2563eb" opacity="0.38" />
<circle cx="854.75" cy="53.14" r="1.6" fill="#2563eb" opacity="0.38" />
<circle cx="856.01" cy="53.14" r="1.6" fill="#2563eb" opacity="0.38" />
<circle cx="856.19" cy="53.07" r="1.6" fill="#2563eb" opacity="0.38" />
<circle cx="857.1" cy="53.02" r="1.6" fill="#2563eb" opacity="0.38" />
<circle cx="866.67" cy="52.69" r="1.6" fill="#2563eb" opacity="0.38" />
<circle cx="868.47" cy="52.62" r="1.6" fill="#2563eb" opacity="0.38" />
<circle cx="869.74" cy="52.58" r="1.6" fill="#2563eb" opacity="0.38" />
<circle cx="871" cy="52.54" r="1.6" fill="#2563eb" opacity="0.38" />
<circle cx="872.26" cy="52.49" r="1.6" fill="#2563eb" opacity="0.38" />
<circle cx="873.16" cy="52.47" r="1.6" fill="#2563eb" opacity="0.38" />
<circle cx="873.35" cy="52.45" r="1.6" fill="#2563eb" opacity="0.38" />
<circle cx="874.25" cy="52.42" r="1.6" fill="#2563eb" opacity="0.38" />
<circle cx="875.15" cy="52.4" r="1.6" fill="#2563eb" opacity="0.38" />
<circle cx="876.23" cy="52.35" r="1.6" fill="#2563eb" opacity="0.38" />
<circle cx="876.95" cy="52.33" r="1.6" fill="#2563eb" opacity="0.38" />
<circle cx="880.39" cy="52.21" r="1.6" fill="#2563eb" opacity="0.38" />
<circle cx="881.29" cy="52.18" r="1.6" fill="#2563eb" opacity="0.38" />
<circle cx="881.47" cy="52.17" r="1.6" fill="#2563eb" opacity="0.38" />
<circle cx="881.84" cy="52.16" r="1.6" fill="#2563eb" opacity="0.38" />
<circle cx="882.38" cy="52.14" r="1.6" fill="#2563eb" opacity="0.38" />
<circle cx="883.46" cy="52.1" r="1.6" fill="#2563eb" opacity="0.38" />
<circle cx="883.82" cy="52.09" r="1.6" fill="#2563eb" opacity="0.38" />
<circle cx="884" cy="52.09" r="1.6" fill="#2563eb" opacity="0.38" />
<circle cx="886.17" cy="52" r="1.6" fill="#2563eb" opacity="0.38" />
<circle cx="887.61" cy="51.96" r="1.6" fill="#2563eb" opacity="0.38" />
<circle cx="893.39" cy="51.76" r="1.6" fill="#2563eb" opacity="0.38" />
<circle cx="894.66" cy="51.71" r="1.6" fill="#2563eb" opacity="0.38" />
<circle cx="896.28" cy="51.65" r="1.6" fill="#2563eb" opacity="0.38" />
<circle cx="897.54" cy="51.6" r="1.6" fill="#2563eb" opacity="0.38" />
<circle cx="898.63" cy="51.57" r="1.6" fill="#2563eb" opacity="0.38" />
<circle cx="899.35" cy="51.54" r="1.6" fill="#2563eb" opacity="0.38" />
<circle cx="900.43" cy="51.51" r="1.6" fill="#2563eb" opacity="0.38" />
<circle cx="901.15" cy="51.48" r="1.6" fill="#2563eb" opacity="0.38" />
<circle cx="911.81" cy="51.1" r="1.6" fill="#2563eb" opacity="0.38" />
<circle cx="912.35" cy="51.08" r="1.6" fill="#2563eb" opacity="0.38" />
<circle cx="912.53" cy="51.08" r="1.6" fill="#2563eb" opacity="0.38" />
<circle cx="913.43" cy="51.05" r="1.6" fill="#2563eb" opacity="0.38" />
<circle cx="914.51" cy="51.01" r="1.6" fill="#2563eb" opacity="0.38" />
<circle cx="915.42" cy="50.98" r="1.6" fill="#2563eb" opacity="0.38" />
<circle cx="916.14" cy="50.96" r="1.6" fill="#2563eb" opacity="0.38" />
<circle cx="916.68" cy="50.93" r="1.6" fill="#2563eb" opacity="0.38" />
<circle cx="917.22" cy="50.9" r="1.6" fill="#2563eb" opacity="0.38" />
<circle cx="917.58" cy="50.88" r="1.6" fill="#2563eb" opacity="0.38" />
<circle cx="918.67" cy="50.86" r="1.6" fill="#2563eb" opacity="0.38" />
<circle cx="920.48" cy="50.8" r="1.6" fill="#2563eb" opacity="0.38" />
<circle cx="923.73" cy="50.68" r="1.6" fill="#2563eb" opacity="0.38" />
<circle cx="925.53" cy="50.62" r="1.6" fill="#2563eb" opacity="0.38" />
<circle cx="926.43" cy="50.6" r="1.6" fill="#2563eb" opacity="0.38" />
<circle cx="927.52" cy="50.55" r="1.6" fill="#2563eb" opacity="0.38" />
<circle cx="928.6" cy="50.52" r="1.6" fill="#2563eb" opacity="0.38" />
<circle cx="929.68" cy="50.48" r="1.6" fill="#2563eb" opacity="0.38" />
<circle cx="929.86" cy="50.47" r="1.6" fill="#2563eb" opacity="0.38" />
<circle cx="930.76" cy="50.46" r="1.6" fill="#2563eb" opacity="0.38" />
<circle cx="932.93" cy="50.36" r="1.6" fill="#2563eb" opacity="0.38" />
<circle cx="934.74" cy="50.3" r="1.6" fill="#2563eb" opacity="0.38" />
<circle cx="935.65" cy="50.27" r="1.6" fill="#2563eb" opacity="0.38" />
<circle cx="936.55" cy="50.23" r="1.6" fill="#2563eb" opacity="0.38" />
<circle cx="937.27" cy="50.22" r="1.6" fill="#2563eb" opacity="0.38" />
<circle cx="943.22" cy="50" r="1.6" fill="#2563eb" opacity="0.38" />
<circle cx="944.13" cy="49.92" r="1.6" fill="#2563eb" opacity="0.38" />
<circle cx="945.57" cy="49.85" r="1.6" fill="#2563eb" opacity="0.38" />
<circle cx="950.81" cy="49.73" r="1.6" fill="#2563eb" opacity="0.38" />
<circle cx="951.9" cy="49.7" r="1.6" fill="#2563eb" opacity="0.38" />
<circle cx="952.8" cy="49.66" r="1.6" fill="#2563eb" opacity="0.38" />
<circle cx="953.52" cy="49.64" r="1.6" fill="#2563eb" opacity="0.38" />
<circle cx="954.24" cy="49.61" r="1.6" fill="#2563eb" opacity="0.38" />
<circle cx="954.96" cy="49.59" r="1.6" fill="#2563eb" opacity="0.38" />
<circle cx="955.87" cy="49.56" r="1.6" fill="#2563eb" opacity="0.38" />
<circle cx="956.41" cy="49.54" r="1.6" fill="#2563eb" opacity="0.38" />
<circle cx="957.13" cy="49.51" r="1.6" fill="#2563eb" opacity="0.38" />
<circle cx="957.85" cy="49.49" r="1.6" fill="#2563eb" opacity="0.38" />
<circle cx="958.57" cy="49.46" r="1.6" fill="#2563eb" opacity="0.38" />
<circle cx="959.11" cy="49.45" r="1.6" fill="#2563eb" opacity="0.38" />
<circle cx="960.92" cy="49.38" r="1.6" fill="#2563eb" opacity="0.38" />
<circle cx="961.83" cy="49.35" r="1.6" fill="#2563eb" opacity="0.38" />
<circle cx="962.91" cy="49.32" r="1.6" fill="#2563eb" opacity="0.38" />
<circle cx="963.63" cy="49.29" r="1.6" fill="#2563eb" opacity="0.38" />
<circle cx="965.98" cy="49.2" r="1.6" fill="#2563eb" opacity="0.38" />
<circle cx="966.88" cy="49.17" r="1.6" fill="#2563eb" opacity="0.38" />
<circle cx="967.42" cy="49.16" r="1.6" fill="#2563eb" opacity="0.38" />
<circle cx="967.96" cy="49.14" r="1.6" fill="#2563eb" opacity="0.38" />
<circle cx="968.51" cy="49.12" r="1.6" fill="#2563eb" opacity="0.38" />
<circle cx="969.05" cy="49.1" r="1.6" fill="#2563eb" opacity="0.38" />
<circle cx="969.77" cy="49.07" r="1.6" fill="#2563eb" opacity="0.38" />
<circle cx="970.13" cy="49.05" r="1.6" fill="#2563eb" opacity="0.38" />
<circle cx="971.03" cy="49.02" r="1.6" fill="#2563eb" opacity="0.38" />
<circle cx="971.57" cy="49" r="1.6" fill="#2563eb" opacity="0.38" />
<circle cx="972.48" cy="48.97" r="1.6" fill="#2563eb" opacity="0.38" />
<circle cx="972.84" cy="48.96" r="1.6" fill="#2563eb" opacity="0.38" />
<circle cx="973.38" cy="48.94" r="1.6" fill="#2563eb" opacity="0.38" />
<circle cx="974.1" cy="48.92" r="1.6" fill="#2563eb" opacity="0.38" />
<circle cx="980.42" cy="48.7" r="1.6" fill="#2563eb" opacity="0.38" />
<circle cx="980.61" cy="48.69" r="1.6" fill="#2563eb" opacity="0.38" />
<circle cx="981.15" cy="48.67" r="1.6" fill="#2563eb" opacity="0.38" />
<circle cx="982.05" cy="48.64" r="1.6" fill="#2563eb" opacity="0.38" />
<circle cx="982.77" cy="48.61" r="1.6" fill="#2563eb" opacity="0.38" />
<circle cx="983.13" cy="48.6" r="1.6" fill="#2563eb" opacity="0.38" />
<circle cx="983.31" cy="48.6" r="1.6" fill="#2563eb" opacity="0.38" />
<circle cx="988.91" cy="48.4" r="1.6" fill="#2563eb" opacity="0.38" />
<circle cx="989.28" cy="48.38" r="1.6" fill="#2563eb" opacity="0.38" />
<circle cx="989.82" cy="48.36" r="1.6" fill="#2563eb" opacity="0.38" />
<circle cx="990.72" cy="48.34" r="1.6" fill="#2563eb" opacity="0.38" />
<circle cx="991.26" cy="48.31" r="1.6" fill="#2563eb" opacity="0.38" />
<circle cx="992.16" cy="48.29" r="1.6" fill="#2563eb" opacity="0.38" />
<circle cx="1007.69" cy="48.28" r="1.6" fill="#2563eb" opacity="0.38" />
<circle cx="1008.41" cy="47.72" r="1.6" fill="#2563eb" opacity="0.38" />
<circle cx="1009.13" cy="47.69" r="1.6" fill="#2563eb" opacity="0.38" />
<circle cx="1009.86" cy="47.66" r="1.6" fill="#2563eb" opacity="0.38" />
<circle cx="1010.58" cy="47.64" r="1.6" fill="#2563eb" opacity="0.38" />
<circle cx="1014.19" cy="47.51" r="1.6" fill="#2563eb" opacity="0.38" />
<circle cx="1015.45" cy="47.47" r="1.6" fill="#2563eb" opacity="0.38" />
<circle cx="1016.72" cy="47.42" r="1.6" fill="#2563eb" opacity="0.38" />
<circle cx="1017.8" cy="47.39" r="1.6" fill="#2563eb" opacity="0.38" />
<circle cx="1018.53" cy="47.36" r="1.6" fill="#2563eb" opacity="0.38" />
<circle cx="1018.89" cy="47.34" r="1.6" fill="#2563eb" opacity="0.38" />
<circle cx="1019.61" cy="47.32" r="1.6" fill="#2563eb" opacity="0.38" />
<circle cx="1020.33" cy="47.3" r="1.6" fill="#2563eb" opacity="0.38" />
<circle cx="1021.05" cy="47.27" r="1.6" fill="#2563eb" opacity="0.38" />
<circle cx="1021.41" cy="47.25" r="1.6" fill="#2563eb" opacity="0.38" />
<circle cx="1022.14" cy="47.23" r="1.6" fill="#2563eb" opacity="0.38" />
<circle cx="1022.32" cy="47.22" r="1.6" fill="#2563eb" opacity="0.38" />
<circle cx="1022.5" cy="47.22" r="1.6" fill="#2563eb" opacity="0.38" />
<circle cx="1022.86" cy="47.21" r="1.6" fill="#2563eb" opacity="0.38" />
<circle cx="1023.4" cy="47.18" r="1.6" fill="#2563eb" opacity="0.38" />
<circle cx="1024.3" cy="47.16" r="1.6" fill="#2563eb" opacity="0.38" />
<circle cx="1025.02" cy="47.13" r="1.6" fill="#2563eb" opacity="0.38" />
<circle cx="1026.29" cy="47.08" r="1.6" fill="#2563eb" opacity="0.38" />
<circle cx="1027.19" cy="47.06" r="1.6" fill="#2563eb" opacity="0.38" />
<circle cx="1027.73" cy="47.03" r="1.6" fill="#2563eb" opacity="0.38" />
<circle cx="1028.45" cy="47.01" r="1.6" fill="#2563eb" opacity="0.38" />
<circle cx="1028.81" cy="46.99" r="1.6" fill="#2563eb" opacity="0.38" />
<circle cx="1029.71" cy="46.97" r="1.6" fill="#2563eb" opacity="0.38" />
<circle cx="1030.63" cy="46.95" r="1.6" fill="#2563eb" opacity="0.38" />
<circle cx="1030.81" cy="46.94" r="1.6" fill="#2563eb" opacity="0.38" />
<circle cx="1031.89" cy="46.94" r="1.6" fill="#2563eb" opacity="0.38" />
<circle cx="1032.79" cy="46.93" r="1.6" fill="#2563eb" opacity="0.38" />
<circle cx="1049.05" cy="46.92" r="1.6" fill="#2563eb" opacity="0.38" />
<circle cx="1049.77" cy="46.92" r="1.6" fill="#2563eb" opacity="0.38" />
<circle cx="1049.95" cy="46.89" r="1.6" fill="#2563eb" opacity="0.38" />
<circle cx="1050.13" cy="46.87" r="1.6" fill="#2563eb" opacity="0.38" />
<circle cx="1050.31" cy="46.85" r="1.6" fill="#2563eb" opacity="0.38" />
<circle cx="1050.49" cy="46.28" r="1.6" fill="#2563eb" opacity="0.38" />
<circle cx="1050.85" cy="46.22" r="1.6" fill="#2563eb" opacity="0.38" />
<circle cx="1051.95" cy="46.18" r="1.6" fill="#2563eb" opacity="0.38" />
<circle cx="1053.21" cy="46.14" r="1.6" fill="#2563eb" opacity="0.38" />
<circle cx="1053.75" cy="46.12" r="1.6" fill="#2563eb" opacity="0.38" />
<circle cx="1053.93" cy="46.11" r="1.6" fill="#2563eb" opacity="0.38" />
<circle cx="1054.47" cy="46.09" r="1.6" fill="#2563eb" opacity="0.38" />
<circle cx="1054.83" cy="46.08" r="1.6" fill="#2563eb" opacity="0.38" />
<circle cx="1055.37" cy="46.06" r="1.6" fill="#2563eb" opacity="0.38" />
<circle cx="1056.1" cy="46.03" r="1.6" fill="#2563eb" opacity="0.38" />
<circle cx="1056.28" cy="46.02" r="1.6" fill="#2563eb" opacity="0.38" />
<circle cx="1057" cy="46.01" r="1.6" fill="#2563eb" opacity="0.38" />
<circle cx="1057.54" cy="45.98" r="1.6" fill="#2563eb" opacity="0.38" />
<circle cx="1058.26" cy="45.95" r="1.6" fill="#2563eb" opacity="0.38" />
<circle cx="1058.99" cy="45.93" r="1.6" fill="#2563eb" opacity="0.38" />
<circle cx="1064.59" cy="44.85" r="1.6" fill="#2563eb" opacity="0.38" />
<circle cx="1066.22" cy="44.8" r="1.6" fill="#2563eb" opacity="0.38" />
<circle cx="1067.66" cy="44.75" r="1.6" fill="#2563eb" opacity="0.38" />
<circle cx="1068.93" cy="44.7" r="1.6" fill="#2563eb" opacity="0.38" />
<circle cx="1070.19" cy="44.66" r="1.6" fill="#2563eb" opacity="0.38" />
<circle cx="1072.18" cy="44.42" r="1.6" fill="#2563eb" opacity="0.38" />
<circle cx="1076.88" cy="44.39" r="1.6" fill="#2563eb" opacity="0.38" />
<circle cx="1078.87" cy="44.36" r="1.6" fill="#2563eb" opacity="0.38" />
<circle cx="1080.13" cy="44.31" r="1.6" fill="#2563eb" opacity="0.38" />
<circle cx="1081.58" cy="44.25" r="1.6" fill="#2563eb" opacity="0.38" />
<circle cx="1082.84" cy="44.22" r="1.6" fill="#2563eb" opacity="0.38" />
<circle cx="1084.64" cy="44.15" r="1.6" fill="#2563eb" opacity="0.38" />
<circle cx="1085.92" cy="44.11" r="1.6" fill="#2563eb" opacity="0.38" />
<circle cx="1086.82" cy="44.07" r="1.6" fill="#2563eb" opacity="0.38" />
<circle cx="1088.44" cy="44.03" r="1.6" fill="#2563eb" opacity="0.38" />
<circle cx="1095.31" cy="43.77" r="1.6" fill="#2563eb" opacity="0.38" />
<circle cx="1096.21" cy="43.74" r="1.6" fill="#2563eb" opacity="0.38" />
<circle cx="1096.93" cy="43.72" r="1.6" fill="#2563eb" opacity="0.38" />
<circle cx="1097.65" cy="43.68" r="1.6" fill="#2563eb" opacity="0.38" />
<circle cx="1098.02" cy="43.66" r="1.6" fill="#2563eb" opacity="0.38" />
<circle cx="1098.57" cy="43.66" r="1.6" fill="#2563eb" opacity="0.38" />
<circle cx="1099.29" cy="43.64" r="1.6" fill="#2563eb" opacity="0.38" />
<circle cx="1100.19" cy="43.6" r="1.6" fill="#2563eb" opacity="0.38" />
<circle cx="1100.91" cy="43.58" r="1.6" fill="#2563eb" opacity="0.38" />
<circle cx="1102.17" cy="43.54" r="1.6" fill="#2563eb" opacity="0.38" />
<circle cx="1103.26" cy="43.5" r="1.6" fill="#2563eb" opacity="0.38" />
<circle cx="1109.94" cy="43.26" r="1.6" fill="#2563eb" opacity="0.38" />
<circle cx="1111.03" cy="43.23" r="1.6" fill="#2563eb" opacity="0.38" />
<circle cx="1111.76" cy="43.19" r="1.6" fill="#2563eb" opacity="0.38" />
<circle cx="1117.71" cy="42.99" r="1.6" fill="#2563eb" opacity="0.38" />
<circle cx="1120.07" cy="42.91" r="1.6" fill="#2563eb" opacity="0.38" />
<circle cx="1121.69" cy="42.85" r="1.6" fill="#2563eb" opacity="0.38" />
<circle cx="1122.77" cy="42.81" r="1.6" fill="#2563eb" opacity="0.38" />
<circle cx="1124.4" cy="42.76" r="1.6" fill="#2563eb" opacity="0.38" />
<circle cx="1126.39" cy="42.69" r="1.6" fill="#2563eb" opacity="0.38" />
<circle cx="1128.38" cy="42.61" r="1.6" fill="#2563eb" opacity="0.38" />
<circle cx="1130.18" cy="42.55" r="1.6" fill="#2563eb" opacity="0.38" />
<circle cx="1131.09" cy="42.52" r="1.6" fill="#2563eb" opacity="0.38" />
<circle cx="1132.35" cy="42.47" r="1.6" fill="#2563eb" opacity="0.38" />
<circle cx="1133.26" cy="42.45" r="1.6" fill="#2563eb" opacity="0.38" />
<circle cx="1133.98" cy="42.42" r="1.6" fill="#2563eb" opacity="0.38" />
<circle cx="1134.88" cy="42.38" r="1.6" fill="#2563eb" opacity="0.38" />
<circle cx="1135.06" cy="42.36" r="1.6" fill="#2563eb" opacity="0.38" />
<circle cx="1135.96" cy="42.35" r="1.6" fill="#2563eb" opacity="0.38" />
<circle cx="1136.69" cy="42.33" r="1.6" fill="#2563eb" opacity="0.38" />
<circle cx="1137.41" cy="42.3" r="1.6" fill="#2563eb" opacity="0.38" />
<circle cx="1138.32" cy="42.27" r="1.6" fill="#2563eb" opacity="0.38" />
<circle cx="1153.86" cy="41.72" r="1.6" fill="#2563eb" opacity="0.38" />
<circle cx="1154.76" cy="41.69" r="1.6" fill="#2563eb" opacity="0.38" />
<circle cx="1155.48" cy="41.66" r="1.6" fill="#2563eb" opacity="0.38" />
<circle cx="1156.56" cy="41.63" r="1.6" fill="#2563eb" opacity="0.38" />
<circle cx="1157.65" cy="41.58" r="1.6" fill="#2563eb" opacity="0.38" />
<circle cx="1158.56" cy="41.56" r="1.6" fill="#2563eb" opacity="0.38" />
<circle cx="1158.92" cy="41.55" r="1.6" fill="#2563eb" opacity="0.38" />
<circle cx="1159.82" cy="41.52" r="1.6" fill="#2563eb" opacity="0.38" />
<line x1="210.43" y1="113.71" x2="228.68" y2="113.14" stroke="#dc2626" stroke-width="2.2" opacity="0.85" />
<line x1="233.91" y1="112.89" x2="261.72" y2="111.91" stroke="#dc2626" stroke-width="2.2" opacity="0.85" />
<line x1="278.33" y1="110.99" x2="359.12" y2="108.54" stroke="#dc2626" stroke-width="2.2" opacity="0.85" />
<line x1="360.76" y1="104.31" x2="369.24" y2="103.16" stroke="#dc2626" stroke-width="2.2" opacity="0.85" />
<line x1="534.4" y1="80.02" x2="556.61" y2="79.29" stroke="#dc2626" stroke-width="2.2" opacity="0.85" />
<line x1="581.64" y1="73.9" x2="680.43" y2="69.9" stroke="#dc2626" stroke-width="2.2" opacity="0.85" />
<line x1="680.43" y1="69.9" x2="703.01" y2="68.61" stroke="#dc2626" stroke-width="2.2" opacity="0.85" />
<line x1="709.33" y1="62.51" x2="830.73" y2="58.46" stroke="#dc2626" stroke-width="2.2" opacity="0.85" />
<line x1="856.19" y1="53.07" x2="944.13" y2="49.92" stroke="#dc2626" stroke-width="2.2" opacity="0.85" />
<line x1="950.81" y1="49.73" x2="1007.69" y2="48.28" stroke="#dc2626" stroke-width="2.2" opacity="0.85" />
<line x1="1008.41" y1="47.72" x2="1032.97" y2="46.92" stroke="#dc2626" stroke-width="2.2" opacity="0.85" />
<line x1="1050.85" y1="46.22" x2="1064.59" y2="45.71" stroke="#dc2626" stroke-width="2.2" opacity="0.85" />
<line x1="1078.87" y1="44.36" x2="1160" y2="40" stroke="#dc2626" stroke-width="2.2" opacity="0.85" />
</svg>